<svg id="Layer_1" data-name="Layer 1" xmlns="http://www.w3.org/2000/svg" viewBox="0 0 536.21 180.65"><defs><style>.cls-1{fill:#649af3;}.cls-1,.cls-2{opacity:0.8;}.cls-2,.cls-3{fill:#2967d5;}.cls-3{opacity:0.7;}.cls-4{font-size:60px;fill:#323c47;font-family:Source Sans Pro, sans-serif;font-weight:700;width="100%"}</style></defs><title>logo6</title><path class="cls-1" d="M193.1,111.2A16.39,16.39,0,0,0,193.2,88L138.81,33.21a16.38,16.38,0,0,0-23.17-.09L60.81,87.51a16.39,16.39,0,0,0-.09,23.17l54.39,54.82a16.37,16.37,0,0,0,23.17.09Z" transform="translate(-9.26 -9.35)"/><path class="cls-1" d="M183.47,164.12A4.52,4.52,0,0,0,179,159.6H157.6a4.52,4.52,0,0,0-4.53,4.52v21.35A4.53,4.53,0,0,0,157.6,190H179a4.53,4.53,0,0,0,4.52-4.53Z" transform="translate(-9.26 -9.35)"/><path class="cls-2" d="M61.15,11.75a2.4,2.4,0,0,0-2.39-2.4H47.43A2.4,2.4,0,0,0,45,11.75V23.07a2.39,2.39,0,0,0,2.39,2.4H58.76a2.39,2.39,0,0,0,2.39-2.4Z" transform="translate(-9.26 -9.35)"/><path class="cls-3" d="M35.34,54.8H97.59A13.19,13.19,0,0,1,110.78,68v62.24a13.19,13.19,0,0,1-13.19,13.19H35.34a13.2,13.2,0,0,1-13.2-13.2V68a13.2,13.2,0,0,1,13.2-13.2Z" transform="translate(-59.78 66.21) rotate(-44.77)"/><text class="cls-4" transform="translate(208.55 107.31)">PROFIROOM</text></svg>
