<svg width="123" height="28" viewBox="0 0 123 28" fill="none" xmlns="http://www.w3.org/2000/svg">
<path d="M105.243 2.99414H92.793V25.0053H105.243V2.99414Z" fill="#FF5F00"/>
<path d="M93.5876 14C93.5876 9.52778 95.7218 5.56112 99.0022 2.99445C96.5913 1.12778 93.548 0 90.2281 0C82.3631 0 76 6.26111 76 14C76 21.7389 82.3631 28 90.2281 28C93.548 28 96.5913 26.8722 99.0022 25.0056C95.7218 22.4778 93.5876 18.4722 93.5876 14Z" fill="#EB001B"/>
<path d="M122.041 14C122.041 21.7389 115.678 28 107.813 28C104.493 28 101.45 26.8722 99.0391 25.0056C102.359 22.4389 104.454 18.4722 104.454 14C104.454 9.52778 102.319 5.56112 99.0391 2.99445C101.45 1.12778 104.493 0 107.813 0C115.678 0 122.041 6.3 122.041 14Z" fill="#F79E1B"/>
<path d="M17.1367 20.5809L19.511 7.43799H23.2208L20.9207 20.5809H17.1367Z" fill="#3C58BF"/>
<path d="M17.1562 20.5442L20.1983 7.40137H23.2403L20.9402 20.5442H17.1562Z" fill="#293688"/>
<path d="M34.352 7.58413C33.61 7.29206 32.4229 7 30.939 7C27.2292 7 24.5581 8.8254 24.5581 11.454C24.5581 13.4254 26.413 14.4476 27.8969 15.1048C29.3808 15.7619 29.826 16.2 29.826 16.7841C29.826 17.6603 28.6389 18.0984 27.6001 18.0984C26.1162 18.0984 25.3001 17.8794 24.0387 17.3683L23.5194 17.1492L23 20.1429C23.8904 20.5079 25.5227 20.873 27.2292 20.873C31.1616 20.873 33.7584 19.0476 33.7584 16.273C33.7584 14.7397 32.7939 13.5714 30.568 12.6222C29.2325 11.9651 28.4163 11.6 28.4163 10.9429C28.4163 10.3587 29.0841 9.77461 30.568 9.77461C31.8293 9.77461 32.7197 9.99365 33.3874 10.2857L33.7584 10.4317L34.352 7.58413Z" fill="#3C58BF"/>
<path d="M34.352 7.58413C33.61 7.29206 32.4229 7 30.939 7C27.2292 7 25.2259 8.8254 25.2259 11.454C25.2259 13.4254 26.413 14.4476 27.8969 15.1048C29.3808 15.7619 29.826 16.2 29.826 16.7841C29.826 17.6603 28.6389 18.0984 27.6001 18.0984C26.1162 18.0984 25.3001 17.8794 24.0387 17.3683L23.5194 17.1492L23 20.1429C23.8904 20.5079 25.5227 20.873 27.2292 20.873C31.1616 20.873 33.7584 19.0476 33.7584 16.273C33.7584 14.7397 32.7939 13.5714 30.568 12.6222C29.2325 11.9651 28.4163 11.6 28.4163 10.9429C28.4163 10.3587 29.0841 9.77461 30.568 9.77461C31.8293 9.77461 32.7197 9.99365 33.3874 10.2857L33.7584 10.4317L34.352 7.58413Z" fill="#293688"/>
<path d="M40.7321 7.43799C39.8417 7.43799 39.1739 7.51101 38.803 8.3872L33.2383 20.5809H37.2449L37.9868 18.3904H42.7353L43.1805 20.5809H46.7419L43.6257 7.43799H40.7321ZM39.0256 16.1999C39.2481 15.5428 40.5095 12.3301 40.5095 12.3301C40.5095 12.3301 40.8063 11.5269 41.0288 11.0158L41.2514 12.257C41.2514 12.257 41.9934 15.5428 42.1418 16.2729H39.0256V16.1999Z" fill="#3C58BF"/>
<path d="M41.6224 7.43799C40.7321 7.43799 40.0643 7.51101 39.6933 8.3872L33.2383 20.5809H37.2449L37.9868 18.3904H42.7353L43.1805 20.5809H46.7419L43.6257 7.43799H41.6224ZM39.0256 16.1999C39.3223 15.4697 40.5095 12.3301 40.5095 12.3301C40.5095 12.3301 40.8063 11.5269 41.0288 11.0158L41.2514 12.257C41.2514 12.257 41.9934 15.5428 42.1418 16.2729H39.0256V16.1999Z" fill="#293688"/>
<path d="M10.3108 16.6382L9.93981 14.7398C9.27204 12.5493 7.12036 10.1398 4.74609 8.97155L8.08491 20.6541H12.0915L18.1014 7.51123H14.0948L10.3108 16.6382Z" fill="#3C58BF"/>
<path d="M10.3108 16.6382L9.93981 14.7398C9.27204 12.5493 7.12036 10.1398 4.74609 8.97155L8.08491 20.6541H12.0915L18.1014 7.51123H14.8367L10.3108 16.6382Z" fill="#293688"/>
<path d="M0 7.43799L0.667763 7.58402C5.4163 8.67926 8.68092 11.4539 9.94225 14.7396L8.60672 8.53323C8.38414 7.65704 7.71637 7.43799 6.90022 7.43799H0Z" fill="#FFBC00"/>
<path d="M0 7.43799C4.74854 8.53323 8.68092 11.3808 9.94225 14.6666L8.68092 9.48244C8.45833 8.60624 7.71637 8.09513 6.90022 8.09513L0 7.43799Z" fill="#F7981D"/>
<path d="M0 7.43799C4.74854 8.53323 8.68092 11.3808 9.94225 14.6666L9.0519 11.8189C8.82931 10.9428 8.53253 10.0666 7.49379 9.70148L0 7.43799Z" fill="#ED7C00"/>
<path d="M14.0206 16.2L11.4979 13.7175L10.3108 16.4921L10.014 14.6667C9.34626 12.4762 7.19458 10.0667 4.82031 8.89844L8.15913 20.581H12.1657L14.0206 16.2Z" fill="#051244"/>
<path d="M20.9207 20.5809L17.7303 17.3682L17.1367 20.5809H20.9207Z" fill="#051244"/>
<path d="M29.455 16.0542C29.7518 16.3463 29.9002 16.5653 29.826 16.8574C29.826 17.7336 28.6389 18.1717 27.6001 18.1717C26.1162 18.1717 25.3001 17.9526 24.0387 17.4415L23.5194 17.2225L23 20.2161C23.8904 20.5812 25.5227 20.9463 27.2292 20.9463C29.6034 20.9463 31.5325 20.2891 32.6455 19.1209L29.455 16.0542Z" fill="#051244"/>
<path d="M33.7578 20.5812H37.245L37.987 18.3907H42.7355L43.1807 20.5812H46.7421L45.4808 15.251L41.029 11.0161L41.2516 12.1844C41.2516 12.1844 41.9936 15.4701 42.1419 16.2002H39.0257C39.3225 15.4701 40.5096 12.3304 40.5096 12.3304C40.5096 12.3304 40.8064 11.5272 41.029 11.0161" fill="#051244"/>
</svg>
