<svg width="24" height="20" viewBox="0 0 24 20" fill="none" xmlns="http://www.w3.org/2000/svg">
<path d="M23.2942 8.76944H22.8928L20.0182 4.35813H20.079C20.7027 4.35813 21.2084 3.85234 21.2084 3.22868C21.2084 2.6049 20.7026 2.09928 20.079 2.09928H13.1294V1.90728C13.1294 1.28345 12.6237 0.777832 12 0.777832C11.3763 0.777832 10.8706 1.28351 10.8706 1.90728V2.09928H3.92104C3.29732 2.09928 2.79159 2.60496 2.79159 3.22868C2.79159 3.8524 3.29727 4.35813 3.92104 4.35813H3.98171L1.10729 8.76944H0.705768C0.316019 8.76944 0 9.08546 0 9.47521C0 11.9948 2.04994 14.0448 4.5696 14.0448C7.08927 14.0448 9.1392 11.9948 9.1392 9.47521C9.1392 9.08552 8.82318 8.76944 8.43343 8.76944H8.03185L5.15738 4.35813H10.8706V16.7255H8.29987C7.61046 16.7255 7.05159 17.2843 7.05159 17.9737C7.05159 18.6631 7.61046 19.2219 8.29987 19.2219H15.7001C16.3895 19.2219 16.9484 18.663 16.9484 17.9737C16.9484 17.2843 16.3895 16.7255 15.7001 16.7255H13.1294V4.35813H18.8425L15.9681 8.76944H15.5666C15.1768 8.76944 14.8608 9.08546 14.8608 9.47521C14.8608 11.9948 16.9107 14.0448 19.4303 14.0448C21.95 14.0448 23.9999 11.9948 23.9999 9.47521C24 9.08546 23.684 8.76944 23.2942 8.76944ZM6.42006 8.76944H2.71909L4.56954 5.92946L6.42006 8.76944ZM17.58 8.76944L19.4304 5.92946L21.2809 8.76944H17.58Z" fill="#FF9090"/>
</svg>
