<svg width="29" height="29" viewBox="0 0 29 29" fill="none" xmlns="http://www.w3.org/2000/svg">
<path opacity="0.3" fill-rule="evenodd" clip-rule="evenodd" d="M19.0667 20.4304V26.559C19.0667 27.6872 18.152 28.6018 17.0238 28.6018H2.04286C0.914618 28.6018 0 27.6872 0 26.559V11.578C0 10.4498 0.914618 9.53516 2.04286 9.53516H8.17143V17.0256C8.17143 18.906 9.69579 20.4304 11.5762 20.4304H19.0667Z" fill="#1565D8"/>
<path fill-rule="evenodd" clip-rule="evenodd" d="M11.5765 0H26.5575C27.6857 0 28.6004 0.914618 28.6004 2.04286V17.0238C28.6004 18.152 27.6857 19.0667 26.5575 19.0667H11.5765C10.4483 19.0667 9.53369 18.152 9.53369 17.0238V2.04286C9.53369 0.914618 10.4483 0 11.5765 0Z" fill="#1565D8"/>
</svg>
