<svg width="40" height="40" viewBox="0 0 40 40" fill="none" xmlns="http://www.w3.org/2000/svg">
<path fill-rule="evenodd" clip-rule="evenodd" d="M5.6002 3.19922H24.8002C26.1257 3.19922 27.2002 4.27374 27.2002 5.59922V24.7992C27.2002 26.1247 26.1257 27.1992 24.8002 27.1992H5.6002C4.27471 27.1992 3.2002 26.1247 3.2002 24.7992V5.59922C3.2002 4.27374 4.27471 3.19922 5.6002 3.19922ZM33.6002 12.7993H34.4002C35.7257 12.7993 36.8002 13.8738 36.8002 15.1993V34.3993C36.8002 35.7248 35.7257 36.7993 34.4002 36.7993H15.2002C13.8747 36.7993 12.8002 35.7248 12.8002 34.3993V33.5993H29.6002C31.8093 33.5993 33.6002 31.8085 33.6002 29.5993V12.7993Z" fill="#1565D8"/>
<path opacity="0.3" fill-rule="evenodd" clip-rule="evenodd" d="M28.8 8H29.6C30.9255 8 32 9.07452 32 10.4V29.6C32 30.9255 30.9255 32 29.6 32H10.4C9.07452 32 8 30.9255 8 29.6V28.8H24.8C27.0091 28.8 28.8 27.0091 28.8 24.8V8Z" fill="#1565D8"/>
</svg>
