<svg width="40" height="40" viewBox="0 0 40 40" fill="none" xmlns="http://www.w3.org/2000/svg">
<path fill-rule="evenodd" clip-rule="evenodd" d="M11.4927 15.7016C13.5954 12.7134 14.9079 9.28462 15.4345 5.40285C15.4846 5.03307 15.7464 4.72559 16.1057 4.6144C19.7268 3.49376 21.7855 5.27454 21.7515 9.33509C21.7449 10.1233 21.7085 10.8239 21.6311 11.8954C21.4581 14.2888 21.4719 14.9419 21.7399 15.3814C21.9974 15.8039 22.8336 15.9481 24.8114 15.5726C25.4354 15.4541 26.0615 15.3198 26.7549 15.1585C27.0609 15.0873 29.2657 14.5494 29.8292 14.4277C30.9042 14.1955 31.6756 14.0973 32.3539 14.1389C34.1914 14.2516 35.1664 15.4347 35.3349 17.7013C35.6316 21.693 34.7148 29.7108 33.8001 32.6641C32.8655 35.682 31.2355 36.8211 27.3229 36.8899C24.8073 36.9341 20.9383 36.9341 15.6977 36.8898C14.36 36.8587 13.1476 36.5996 12.0692 36.1153C12.3719 35.4885 12.5415 34.7865 12.5415 34.0452V18.6852C12.5415 17.5576 12.1492 16.5208 11.4927 15.7016Z" fill="#1565D8"/>
<path opacity="0.3" fill-rule="evenodd" clip-rule="evenodd" d="M5.7622 15.8047C4.15766 15.8047 2.85693 17.0941 2.85693 18.6847V34.0447C2.85693 35.6353 4.15766 36.9247 5.7622 36.9247H7.69904C9.30357 36.9247 10.6043 35.6353 10.6043 34.0447V18.6847C10.6043 17.0941 9.30357 15.8047 7.69904 15.8047H5.7622Z" fill="#1565D8"/>
</svg>
