<svg width="40" height="40" viewBox="0 0 40 40" fill="none" xmlns="http://www.w3.org/2000/svg">
<path opacity="0.3" fill-rule="evenodd" clip-rule="evenodd" d="M19.2455 31.7568L20.3795 32.8907C20.8409 33.3522 20.8409 34.1004 20.3795 34.5619C19.918 35.0234 19.1698 35.0234 18.7083 34.5619L15.5571 31.4106C15.0956 30.9492 15.0956 30.2009 15.5571 29.7395L18.7083 26.5882C19.1698 26.1268 19.918 26.1268 20.3795 26.5882C20.8409 27.0497 20.8409 27.7979 20.3795 28.2594L19.2455 29.3933H27.028V31.7568H19.2455ZM31.7548 19.8441L32.8887 18.7102C33.3502 18.2487 34.0984 18.2487 34.5599 18.7102C35.0214 19.1717 35.0214 19.9199 34.5599 20.3814L31.4087 23.5326C31.1779 23.7633 30.8755 23.8787 30.5731 23.8787C30.2707 23.8787 29.9683 23.7633 29.7375 23.5326L26.5863 20.3814C26.1248 19.9199 26.1248 19.1717 26.5863 18.7102C27.0478 18.2487 27.796 18.2487 28.2575 18.7102L29.3914 19.8441V12.0616H31.7548V19.8441ZM19.8422 9.69823H12.0597V7.33481H19.8422L18.7082 6.20089C18.2468 5.73941 18.2468 4.99119 18.7082 4.52971C19.1697 4.06822 19.9179 4.06822 20.3794 4.52971L23.5307 7.68093C23.9921 8.14241 23.9921 8.89063 23.5307 9.35211L20.3794 12.5033C19.9179 12.9648 19.1697 12.9648 18.7082 12.5033C18.2468 12.0418 18.2468 11.2936 18.7082 10.8321L19.8422 9.69823ZM7.33286 19.2475L6.19894 20.3814C5.73746 20.8429 4.98924 20.8429 4.52775 20.3814C4.06627 19.9199 4.06627 19.1717 4.52775 18.7102L7.67897 15.559C8.14046 15.0975 8.88868 15.0975 9.35016 15.559L12.5014 18.7102C12.9629 19.1717 12.9629 19.9199 12.5014 20.3814C12.0399 20.8429 11.2917 20.8429 10.8302 20.3814L9.69627 19.2475V27.03H7.33286V19.2475Z" fill="#1565D8"/>
<path fill-rule="evenodd" clip-rule="evenodd" d="M14.0293 11.6659V5.36341C14.0293 4.05814 12.9711 3 11.6659 3H5.36341C4.05814 3 3 4.05814 3 5.36341V11.6659C3 12.9711 4.05814 14.0293 5.36341 14.0293H11.6659C12.9711 14.0293 14.0293 12.9711 14.0293 11.6659ZM11.6659 25.0585H5.36341C4.05814 25.0585 3 26.1167 3 27.4219V33.7244C3 35.0297 4.05814 36.0878 5.36341 36.0878H11.6659C12.9711 36.0878 14.0293 35.0297 14.0293 33.7244V27.4219C14.0293 26.1167 12.9711 25.0585 11.6659 25.0585ZM33.7244 14.0293H27.4219C26.1167 14.0293 25.0585 12.9711 25.0585 11.6659V5.36341C25.0585 4.05814 26.1167 3 27.4219 3H33.7244C35.0297 3 36.0878 4.05814 36.0878 5.36341V11.6659C36.0878 12.9711 35.0297 14.0293 33.7244 14.0293ZM25.0585 27.4219V33.7244C25.0585 35.0297 26.1167 36.0878 27.4219 36.0878H33.7244C35.0297 36.0878 36.0878 35.0297 36.0878 33.7244V27.4219C36.0878 26.1167 35.0297 25.0585 33.7244 25.0585H27.4219C26.1167 25.0585 25.0585 26.1167 25.0585 27.4219Z" fill="#1565D8"/>
</svg>
