<svg width="34" height="34" viewBox="0 0 34 34" fill="none" xmlns="http://www.w3.org/2000/svg">
<path fill-rule="evenodd" clip-rule="evenodd" d="M2.4 0H12C13.3255 0 14.4 1.07452 14.4 2.4V12C14.4 13.3255 13.3255 14.4 12 14.4H2.4C1.07452 14.4 0 13.3255 0 12V2.4C0 1.07452 1.07452 0 2.4 0ZM21.6 19.2H31.2C32.5255 19.2 33.6 20.2745 33.6 21.6V31.2C33.6 32.5255 32.5255 33.6 31.2 33.6H21.6C20.2745 33.6 19.2 32.5255 19.2 31.2V21.6C19.2 20.2745 20.2745 19.2 21.6 19.2Z" fill="#1565D8"/>
<path opacity="0.3" fill-rule="evenodd" clip-rule="evenodd" d="M21.6 0H31.2C32.5255 0 33.6 1.07452 33.6 2.4V12C33.6 13.3255 32.5255 14.4 31.2 14.4H21.6C20.2745 14.4 19.2 13.3255 19.2 12V2.4C19.2 1.07452 20.2745 0 21.6 0ZM2.4 19.2H12C13.3255 19.2 14.4 20.2745 14.4 21.6V31.2C14.4 32.5255 13.3255 33.6 12 33.6H2.4C1.07452 33.6 0 32.5255 0 31.2V21.6C0 20.2745 1.07452 19.2 2.4 19.2Z" fill="#1565D8"/>
</svg>
