<svg width="18" height="19" viewBox="0 0 18 19" fill="none" xmlns="http://www.w3.org/2000/svg">
<path fill-rule="evenodd" clip-rule="evenodd" d="M16.4108 1.3336C14.3586 -0.544499 11.0501 -0.398455 9.03098 1.51665L0.763897 9.36681C0.44051 9.67464 0.44051 10.173 0.763897 10.4804C1.08728 10.7879 1.61382 10.7879 1.93721 10.4804L10.2416 2.59643C11.5683 1.33715 13.7242 1.18559 15.138 2.35906C16.6845 3.6459 16.7425 5.88734 15.3121 7.24582L5.19595 16.8493C4.38748 17.6173 3.07321 17.6173 2.26474 16.8493C1.45628 16.0809 1.45628 14.8338 2.26474 14.0654L11.7922 5.01344C12.0368 4.78237 12.4307 4.78552 12.6712 5.01344C12.9158 5.24451 12.9158 5.61769 12.6712 5.84876L3.99776 14.0851C3.67438 14.3925 3.67438 14.8913 3.99776 15.1983C4.32115 15.5062 4.84769 15.5062 5.17107 15.1983L13.8445 6.962C14.7898 6.06684 14.7317 4.58554 13.6828 3.75809C12.7624 3.03692 11.3942 3.16486 10.5526 3.96476L1.09143 12.9522C-0.36381 14.3355 -0.36381 16.5793 1.09143 17.9625C2.55081 19.3458 4.91402 19.3458 6.36926 17.9625L16.4855 8.35946C18.5294 6.4164 18.5046 3.24792 16.4108 1.3336Z" fill="#3C7EEA"/>
</svg>
