<svg width="1280" height="354" viewBox="0 0 1280 354" fill="none" xmlns="http://www.w3.org/2000/svg">
<path opacity="0.4" d="M1280 0C1226.79 0 1226.79 10.834 1173.33 10.834C1120.13 10.834 1120.13 0 1066.67 0C1013.46 0 1013.46 10.834 960 10.834C906.795 10.834 906.795 0 853.333 0C800.128 0 800.128 10.834 746.667 10.834C693.461 10.834 693.461 0 640 0C586.795 0 586.795 10.834 533.333 10.834C480.128 10.834 480.128 0 426.667 0C373.205 0 373.461 10.834 320 10.834C266.539 10.834 266.795 0 213.333 0C160.128 0 160.128 10.834 106.667 10.834C53.2054 10.834 53.4612 0 0 0V354H1278.98V0H1280Z" fill="#65A4F7"/>
</svg>
