<svg width="402" height="150" viewBox="0 0 402 150" fill="none" xmlns="http://www.w3.org/2000/svg">
<path d="M225.599 65.2971C221.599 47.0971 217.699 35.9971 213.999 31.7971C211.499 28.9971 208.099 27.9971 203.799 28.5971C201.399 28.9971 199.399 29.7971 197.899 30.8971L183.199 42.9971C184.699 41.7971 186.599 40.9971 189.099 40.6971C193.399 39.9971 196.799 41.0971 199.299 43.8971C202.999 48.0971 206.899 59.1971 210.899 77.3971C214.999 96.0971 216.099 107.597 214.299 111.897C213.799 113.297 212.899 114.497 211.799 115.397L226.499 103.397C227.599 102.497 228.499 101.297 228.999 99.8971C230.799 95.4971 229.699 83.9971 225.599 65.2971Z" fill="url(#paint0_linear)"/>
<path d="M226.8 133.498C212.8 135.598 201.399 133.498 192.699 126.898C187.499 122.998 182.899 116.998 178.899 109.098C174.899 101.198 171.299 89.4984 167.899 74.1984C162.099 47.9984 162.1 29.3984 167.8 18.2984C169.3 15.2984 171.5 12.6984 174.3 10.3984L159.599 22.3984C156.799 24.6984 154.599 27.2984 153.099 30.2984C147.399 41.3984 147.399 59.9984 153.199 86.1984C156.599 101.598 160.299 113.198 164.199 121.098C168.199 128.998 172.8 134.998 178 138.898C186.7 145.398 198.099 147.598 212.099 145.498C221.699 143.998 229.2 141.098 234.7 136.598L249.4 124.598C244 128.998 236.4 131.998 226.8 133.498Z" fill="url(#paint1_linear)"/>
<path d="M232.9 8.29826C243 16.9983 250.9 34.3983 256.6 60.5983C260 75.9983 261.5 87.8983 261.2 96.4983C260.9 105.098 259.1 111.998 255.9 117.198C250.7 125.898 241 131.298 226.8 133.498C212.8 135.598 201.4 133.498 192.7 126.898C187.5 122.998 182.9 116.998 178.9 109.098C174.9 101.198 171.3 89.4983 167.9 74.1983C162.1 47.9983 162.1 29.3983 167.8 18.2983C170.2 13.5983 174.2 9.79826 179.8 6.79826C185.4 3.79826 191.3 1.89825 197.6 0.898254C212.5 -1.40175 224.3 1.09826 232.9 8.29826ZM229 99.8983C230.8 95.5983 229.7 83.9983 225.6 65.3983C221.6 47.1983 217.7 36.0983 214 31.8983C211.5 29.0983 208.1 28.0983 203.8 28.6983C199.4 29.3983 196.6 31.3983 195.4 34.6983C193.7 39.2983 195 50.8983 199 69.3983C203.1 88.0983 207 99.1983 210.5 102.698C213.1 105.298 216.5 106.298 220.7 105.698C225 104.998 227.8 103.098 229 99.8983Z" fill="white"/>
<path d="M55.5994 43.6992L84.0994 52.6992L59.3994 89.5992L30.8994 80.4992L55.5994 43.6992Z" fill="url(#paint2_linear)"/>
<path d="M41.1998 108.698L69.6998 117.798L29.3998 110.898L0.799805 101.898L41.1998 108.698Z" fill="url(#paint3_linear)"/>
<path d="M91.1002 6.59766L119.7 15.5977L101.7 96.7976L73.2002 87.6976L91.1002 6.59766Z" fill="url(#paint4_linear)"/>
<path d="M62.3996 136.199L90.9996 145.299L64.5996 140.799L36.0996 131.699L62.3996 136.199Z" fill="url(#paint5_linear)"/>
<path d="M67.4994 113.199L96.0994 122.299L90.9994 145.299L62.3994 136.199L67.4994 113.199Z" fill="url(#paint6_linear)"/>
<path d="M77.7 114.999L106.3 123.999L96.1 122.299L67.5 113.199L77.7 114.999Z" fill="url(#paint7_linear)"/>
<path d="M83.4002 89.5L112 98.5L106.3 124L77.7002 115L83.4002 89.5Z" fill="url(#paint8_linear)"/>
<path d="M73.1994 87.6984L83.3994 89.3984L77.7994 114.898L67.5994 113.198L62.4994 136.198L36.0994 131.698L41.1994 108.698L0.899414 101.798L5.59941 80.3984L57.6994 0.898438L91.0994 6.59845L73.1994 87.6984ZM46.7994 83.1984L55.5994 43.6984L30.8994 80.4984L46.7994 83.1984Z" fill="white"/>
<path d="M389.899 101.998L367.899 77.9984L379.399 76.3984L401.399 100.398L389.899 101.998Z" fill="url(#paint9_linear)"/>
<path d="M354.599 149.398L332.499 125.398L335.199 104.898L357.299 128.898L354.599 149.398Z" fill="url(#paint10_linear)"/>
<path d="M342.4 108.699L320.3 84.6992L338.2 82.1992L360.3 106.099L342.4 108.699Z" fill="url(#paint11_linear)"/>
<path d="M360.299 106.098L338.199 82.1984L342.899 46.8984L364.999 70.8984L360.299 106.098Z" fill="url(#paint12_linear)"/>
<path d="M311.899 135.199L289.899 111.299L292.399 92.1992L314.499 116.099L311.899 135.199Z" fill="url(#paint13_linear)"/>
<path d="M361.999 34.8992L339.899 10.8992L377.499 5.69922L399.499 29.5992L361.999 34.8992Z" fill="url(#paint14_linear)"/>
<path d="M314.499 116.098L292.399 92.1984L339.899 10.8984L361.999 34.8984L314.499 116.098Z" fill="url(#paint15_linear)"/>
<path d="M389.899 101.999L401.399 100.399L398.399 123.099L386.899 124.699L384.199 145.199L354.599 149.399L357.299 128.899L311.899 135.299L314.399 116.199L361.899 34.9992L399.499 29.6992L389.899 101.999ZM360.299 106.099L364.999 70.8992L342.399 108.699L360.299 106.099Z" fill="white"/>
<defs>
<linearGradient id="paint0_linear" x1="200.173" y1="34.3596" x2="215.174" y2="105.11" gradientUnits="userSpaceOnUse">
<stop stop-color="#CCD9EB"/>
<stop offset="0.2815" stop-color="#C9D6E9"/>
<stop offset="0.4896" stop-color="#C0CEE3"/>
<stop offset="0.674" stop-color="#B0C1D9"/>
<stop offset="0.8436" stop-color="#99ADCA"/>
<stop offset="1" stop-color="#7D95B8"/>
</linearGradient>
<linearGradient id="paint1_linear" x1="177.7" y1="56.0487" x2="216.7" y2="145.549" gradientUnits="userSpaceOnUse">
<stop stop-color="#CEDBED"/>
<stop offset="0.2788" stop-color="#CBD8EB"/>
<stop offset="0.4849" stop-color="#C2D0E5"/>
<stop offset="0.6675" stop-color="#B2C2DA"/>
<stop offset="0.8355" stop-color="#9BAFCC"/>
<stop offset="0.9938" stop-color="#7E96B9"/>
<stop offset="1" stop-color="#7D95B8"/>
</linearGradient>
<linearGradient id="paint2_linear" x1="29.3925" y1="61.4419" x2="51.0585" y2="65.4419" gradientUnits="userSpaceOnUse">
<stop stop-color="#CCD9EB"/>
<stop offset="0.2815" stop-color="#C9D6E9"/>
<stop offset="0.4896" stop-color="#C0CEE3"/>
<stop offset="0.674" stop-color="#B0C1D9"/>
<stop offset="0.8436" stop-color="#99ADCA"/>
<stop offset="1" stop-color="#7D95B8"/>
</linearGradient>
<linearGradient id="paint3_linear" x1="0.814105" y1="109.814" x2="69.7252" y2="109.814" gradientUnits="userSpaceOnUse">
<stop stop-color="#AABBD4"/>
<stop offset="0.3499" stop-color="#A7B8D2"/>
<stop offset="0.6083" stop-color="#9EB1CC"/>
<stop offset="0.8367" stop-color="#8EA3C2"/>
<stop offset="1" stop-color="#7D95B8"/>
</linearGradient>
<linearGradient id="paint4_linear" x1="99.1324" y1="41.6428" x2="82.1324" y2="105.143" gradientUnits="userSpaceOnUse">
<stop stop-color="#CCD9EB"/>
<stop offset="0.2815" stop-color="#C9D6E9"/>
<stop offset="0.4896" stop-color="#C0CEE3"/>
<stop offset="0.674" stop-color="#B0C1D9"/>
<stop offset="0.8436" stop-color="#99ADCA"/>
<stop offset="1" stop-color="#7D95B8"/>
</linearGradient>
<linearGradient id="paint5_linear" x1="36.0687" y1="138.489" x2="91.0111" y2="138.489" gradientUnits="userSpaceOnUse">
<stop stop-color="#AABBD4"/>
<stop offset="0.3499" stop-color="#A7B8D2"/>
<stop offset="0.6083" stop-color="#9EB1CC"/>
<stop offset="0.8367" stop-color="#8EA3C2"/>
<stop offset="1" stop-color="#7D95B8"/>
</linearGradient>
<linearGradient id="paint6_linear" x1="86.5193" y1="108.639" x2="69.5198" y2="156.971" gradientUnits="userSpaceOnUse">
<stop stop-color="#CCD9EB"/>
<stop offset="0.2815" stop-color="#C9D6E9"/>
<stop offset="0.4896" stop-color="#C0CEE3"/>
<stop offset="0.674" stop-color="#B0C1D9"/>
<stop offset="0.8436" stop-color="#99ADCA"/>
<stop offset="1" stop-color="#7D95B8"/>
</linearGradient>
<linearGradient id="paint7_linear" x1="67.535" y1="118.617" x2="106.307" y2="118.617" gradientUnits="userSpaceOnUse">
<stop stop-color="#AABBD4"/>
<stop offset="0.3499" stop-color="#A7B8D2"/>
<stop offset="0.6083" stop-color="#9EB1CC"/>
<stop offset="0.8367" stop-color="#8EA3C2"/>
<stop offset="1" stop-color="#7D95B8"/>
</linearGradient>
<linearGradient id="paint8_linear" x1="77.7412" y1="106.739" x2="111.953" y2="106.739" gradientUnits="userSpaceOnUse">
<stop stop-color="#DEECFF"/>
<stop offset="0.4881" stop-color="#E1EEFF"/>
<stop offset="0.8482" stop-color="#EAF3FF"/>
<stop offset="1" stop-color="#F1F7FF"/>
</linearGradient>
<linearGradient id="paint9_linear" x1="367.891" y1="89.1732" x2="401.406" y2="89.1732" gradientUnits="userSpaceOnUse">
<stop stop-color="#DEECFF"/>
<stop offset="0.4881" stop-color="#E1EEFF"/>
<stop offset="0.8482" stop-color="#EAF3FF"/>
<stop offset="1" stop-color="#F1F7FF"/>
</linearGradient>
<linearGradient id="paint10_linear" x1="332.508" y1="127.127" x2="357.28" y2="127.127" gradientUnits="userSpaceOnUse">
<stop stop-color="#AABBD4"/>
<stop offset="0.3499" stop-color="#A7B8D2"/>
<stop offset="0.6083" stop-color="#9EB1CC"/>
<stop offset="0.8367" stop-color="#8EA3C2"/>
<stop offset="1" stop-color="#7D95B8"/>
</linearGradient>
<linearGradient id="paint11_linear" x1="320.317" y1="95.4054" x2="360.298" y2="95.4054" gradientUnits="userSpaceOnUse">
<stop stop-color="#DEECFF"/>
<stop offset="0.4881" stop-color="#E1EEFF"/>
<stop offset="0.8482" stop-color="#EAF3FF"/>
<stop offset="1" stop-color="#F1F7FF"/>
</linearGradient>
<linearGradient id="paint12_linear" x1="338.244" y1="76.5199" x2="364.975" y2="76.5199" gradientUnits="userSpaceOnUse">
<stop stop-color="#AABBD4"/>
<stop offset="0.3499" stop-color="#A7B8D2"/>
<stop offset="0.6083" stop-color="#9EB1CC"/>
<stop offset="0.8367" stop-color="#8EA3C2"/>
<stop offset="1" stop-color="#7D95B8"/>
</linearGradient>
<linearGradient id="paint13_linear" x1="289.873" y1="113.697" x2="314.461" y2="113.697" gradientUnits="userSpaceOnUse">
<stop stop-color="#AABBD4"/>
<stop offset="0.3499" stop-color="#A7B8D2"/>
<stop offset="0.6083" stop-color="#9EB1CC"/>
<stop offset="0.8367" stop-color="#8EA3C2"/>
<stop offset="1" stop-color="#7D95B8"/>
</linearGradient>
<linearGradient id="paint14_linear" x1="339.904" y1="20.2916" x2="399.541" y2="20.2916" gradientUnits="userSpaceOnUse">
<stop stop-color="#DEECFF"/>
<stop offset="0.4881" stop-color="#E1EEFF"/>
<stop offset="0.8482" stop-color="#EAF3FF"/>
<stop offset="1" stop-color="#F1F7FF"/>
</linearGradient>
<linearGradient id="paint15_linear" x1="343.712" y1="37.0578" x2="307.712" y2="94.7248" gradientUnits="userSpaceOnUse">
<stop stop-color="#CCD9EB"/>
<stop offset="0.2815" stop-color="#C9D6E9"/>
<stop offset="0.4896" stop-color="#C0CEE3"/>
<stop offset="0.674" stop-color="#B0C1D9"/>
<stop offset="0.8436" stop-color="#99ADCA"/>
<stop offset="1" stop-color="#7D95B8"/>
</linearGradient>
</defs>
</svg>
