<svg width="619" height="97" viewBox="0 0 619 97" fill="none" xmlns="http://www.w3.org/2000/svg">
<path d="M103.8 78.1984C103.8 66.7984 94.6 57.5984 83.2 57.5984C79.1 57.5984 75.3 58.7984 72.1 60.8984C68.5 48.6984 57.2 39.8984 43.9 39.8984C27.6 39.8984 14.5 53.0984 14.5 69.2984C14.5 69.4984 14.5 69.5984 14.5 69.6984C6.5 69.6984 0 76.1984 0 84.1984H102.9C103.5 82.3984 103.8 80.2984 103.8 78.1984Z" fill="url(#paint0_linear)" fill-opacity="0.7"/>
<path d="M618.9 31.0992C618.9 21.8992 611.5 14.4992 602.3 14.4992C599 14.4992 595.9 15.4992 593.3 17.1992C590.4 7.39922 581.3 0.199219 570.5 0.199219C557.4 0.199219 546.7 10.7992 546.7 23.9992C546.7 24.0992 546.7 24.1992 546.7 24.3992C540.2 24.3992 535 29.5992 535 36.0992H618C618.7 34.3992 618.9 32.7992 618.9 31.0992Z" fill="url(#paint1_linear)" fill-opacity="0.7"/>
<path d="M429.2 92.9C429.2 86.7 424.2 81.7 418 81.7C415.8 81.7 413.7 82.4 411.9 83.5C409.9 76.9 403.8 72 396.5 72C387.6 72 380.4 79.2 380.4 88.1C380.4 88.2 380.4 88.3 380.4 88.3C376 88.3 372.5 91.8 372.5 96.2H428.8C429.1 95.2 429.2 94 429.2 92.9Z" fill="url(#paint2_linear)" fill-opacity="0.7"/>
<defs>
<linearGradient id="paint0_linear" x1="51.9" y1="39.8984" x2="51.9" y2="84.1984" gradientUnits="userSpaceOnUse">
<stop stop-color="white"/>
<stop offset="1" stop-color="white" stop-opacity="0"/>
</linearGradient>
<linearGradient id="paint1_linear" x1="576.95" y1="0.199219" x2="576.95" y2="36.0992" gradientUnits="userSpaceOnUse">
<stop stop-color="white"/>
<stop offset="1" stop-color="white" stop-opacity="0"/>
</linearGradient>
<linearGradient id="paint2_linear" x1="400.85" y1="72" x2="400.85" y2="96.2" gradientUnits="userSpaceOnUse">
<stop stop-color="white"/>
<stop offset="1" stop-color="white" stop-opacity="0"/>
</linearGradient>
</defs>
</svg>
