<svg width="45" height="42" viewBox="0 0 45 42" fill="none" xmlns="http://www.w3.org/2000/svg">
<path d="M36.2542 10.7617C35.7775 7.92917 34.375 5.34417 32.23 3.3825C29.8467 1.20083 26.7483 0 23.5217 0C21.0283 0 18.5992 0.715 16.5183 2.0625C14.7858 3.18083 13.3467 4.69333 12.3292 6.47167C11.8892 6.38917 11.4308 6.34333 10.9725 6.34333C7.07667 6.34333 3.905 9.515 3.905 13.4108C3.905 13.915 3.96 14.4008 4.05167 14.8775C1.53083 16.7108 0 19.6625 0 22.8067C0 25.3458 0.944167 27.8117 2.6675 29.7642C4.43667 31.7625 6.77417 32.945 9.2675 33.0825C9.295 33.0825 9.31333 33.0825 9.34083 33.0825H17.2242C17.9117 33.0825 18.4617 32.5325 18.4617 31.845C18.4617 31.1575 17.9117 30.6075 17.2242 30.6075H9.3775C5.62833 30.3783 2.475 26.8125 2.475 22.7975C2.475 20.2033 3.86833 17.7833 6.11417 16.4725C6.63667 16.17 6.85667 15.5375 6.655 14.9692C6.47167 14.4742 6.38 13.9517 6.38 13.3925C6.38 10.8625 8.4425 8.8 10.9725 8.8C11.5133 8.8 12.045 8.89167 12.54 9.075C13.145 9.295 13.8142 9.02 14.0892 8.4425C15.8033 4.80333 19.5067 2.45667 23.5308 2.45667C28.9392 2.45667 33.4033 6.50833 33.9167 11.88C33.9717 12.4392 34.3933 12.8883 34.9433 12.98C39.0225 13.6767 42.1025 17.4442 42.1025 21.7433C42.1025 26.2992 38.5183 30.2592 34.1 30.5983H27.3442C26.6567 30.5983 26.1067 31.1483 26.1067 31.8358C26.1067 32.5233 26.6567 33.0733 27.3442 33.0733H34.1458C34.1733 33.0733 34.2008 33.0733 34.2375 33.0733C37.0333 32.8717 39.6458 31.5883 41.5892 29.4433C43.5233 27.3167 44.5775 24.585 44.5775 21.7433C44.5683 16.6008 41.0575 12.0267 36.2542 10.7617Z" fill="#BFC5D1"/>
<path d="M29.7183 23.9803C30.2041 23.4944 30.2041 22.7153 29.7183 22.2294L23.1641 15.6753C22.9349 15.4461 22.6141 15.3086 22.2933 15.3086C21.9724 15.3086 21.6516 15.4369 21.4224 15.6753L14.8683 22.2294C14.3824 22.7153 14.3824 23.4944 14.8683 23.9803C15.1066 24.2186 15.4274 24.3469 15.7391 24.3469C16.0508 24.3469 16.3716 24.2278 16.6099 23.9803L21.0558 19.5344V39.9669C21.0558 40.6544 21.6058 41.2044 22.2933 41.2044C22.9808 41.2044 23.5308 40.6544 23.5308 39.9669V19.5344L27.9766 23.9803C28.4533 24.4661 29.2324 24.4661 29.7183 23.9803Z" fill="#BFC5D1"/>
</svg>
