<svg width="20" height="19" viewBox="0 0 20 19" fill="none" xmlns="http://www.w3.org/2000/svg">
<path fill-rule="evenodd" clip-rule="evenodd" d="M11 8.76142C9.13616 8.76142 7.57006 7.51439 7.12602 5.82672H0V3.87025H7.12602C7.57006 2.18257 9.13616 0.935547 11 0.935547C13.2091 0.935547 15 2.68743 15 4.84848C15 7.00954 13.2091 8.76142 11 8.76142ZM17 3.87025H20V5.82672H17V3.87025ZM6 18.5438C4.13616 18.5438 2.57006 17.2967 2.12602 15.6091H0V13.6526H2.12602C2.57006 11.9649 4.13616 10.7179 6 10.7179C8.20914 10.7179 10 12.4698 10 14.6308C10 16.7919 8.20914 18.5438 6 18.5438ZM12 15.6091H20V13.6526H12V15.6091ZM8 14.6308C8 15.7114 7.10457 16.5873 6 16.5873C4.89543 16.5873 4 15.7114 4 14.6308C4 13.5503 4.89543 12.6744 6 12.6744C7.10457 12.6744 8 13.5503 8 14.6308ZM13 4.84848C13 5.92901 12.1046 6.80495 11 6.80495C9.89543 6.80495 9 5.92901 9 4.84848C9 3.76796 9.89543 2.89201 11 2.89201C12.1046 2.89201 13 3.76796 13 4.84848Z" fill="#BFC5D1"/>
</svg>
