<svg version="1.1" id="Layer_1" xmlns="http://www.w3.org/2000/svg" x="0" y="0" viewBox="0 0 250 250" xml:space="preserve">
  <path d="M25 164.9c5.5-21.2 21.4-31.7 40.5-37.9a120 120 0 0178.3.9c2.6.9 5.1 2.1 8.4 3.5a59.4 59.4 0 00-19.7 31 55.2 55.2 0 0032.5 64.1c1.8.8 3.1 3 4.6 4.5H37.4l-12.3-13.8-.1-52.3z"/>
  <path d="M111.1 5c8.3 3.7 17.5 6.3 24.8 11.5a53.2 53.2 0 0117.3 64.4A54.3 54.3 0 1187 7.8L95.7 5h15.4zM232.6 181.8c-1 2.6-2.1 5.2-2.9 7.9a46.2 46.2 0 01-51 31.5 45.7 45.7 0 01-38.9-45.5 46.1 46.1 0 0189.9-14l2.9 7.9v12.2zm-41.9 23.9v-25.9h25.5v-9h-25.8v-25.5h-9v25.9h-25.5v9.1h25.9v25.4h8.9z"/>
</svg>
