<svg width="20" height="20" viewBox="0 0 20 20" fill="none" xmlns="http://www.w3.org/2000/svg">
<g clip-path="url(#clip0)">
<path d="M11.4977 15.7656H1.50177C0.672743 15.7656 0 16.4383 0 17.2674V19.9982H12.9995V17.2674C12.9995 16.4383 12.3268 15.7656 11.4977 15.7656Z" fill="#BFC5D1"/>
<path d="M19.7304 15.9777L10.6058 6.85301L12.3682 5.09373C12.6588 5.34998 13.1057 5.33745 13.3807 5.06248C13.6682 4.77188 13.6682 4.30624 13.3807 4.01564L9.58087 0.218924C9.29336 -0.0716727 8.82463 -0.0716727 8.53717 0.218924C8.24657 0.506429 8.24657 0.97516 8.53717 1.26262L8.50592 1.23137L3.68108 6.05304L3.71233 6.08738C3.42483 5.79678 2.9561 5.79678 2.66863 6.08738C2.37803 6.37488 2.37803 6.84361 2.66863 7.13112L6.46535 10.9309C6.75595 11.2184 7.22468 11.2184 7.51218 10.9309C7.79969 10.6403 7.79969 10.1747 7.51218 9.88418L7.54343 9.91535L9.30585 8.15606L18.4274 17.2776C18.7867 17.637 19.3711 17.637 19.7304 17.2776C20.0898 16.9182 20.0898 16.337 19.7304 15.9777Z" fill="#BFC5D1"/>
</g>
<defs>
<clipPath id="clip0">
<rect width="20" height="20" fill="white"/>
</clipPath>
</defs>
</svg>
