<svg width="24" height="24" viewBox="0 0 24 24" fill="none" xmlns="http://www.w3.org/2000/svg">
<path d="M8.74407 13.2405C8.74407 12.9399 8.50021 12.6963 8.19932 12.6963H6.29836C5.99781 12.6963 5.75391 12.9399 5.75391 13.2405V15.1412C5.75391 15.4423 5.99781 15.6859 6.29836 15.6859H8.19932C8.50021 15.6859 8.74407 15.4423 8.74407 15.1412V13.2405Z" fill="#BFC5D1"/>
<path d="M13.495 13.2405C13.495 12.9399 13.2511 12.6963 12.9508 12.6963H11.0496C10.749 12.6963 10.5051 12.9399 10.5051 13.2405V15.1412C10.5051 15.4423 10.749 15.6859 11.0496 15.6859H12.9508C13.2511 15.6859 13.495 15.4423 13.495 15.1412V13.2405Z" fill="#BFC5D1"/>
<path d="M18.246 13.2405C18.246 12.9399 18.0021 12.6963 17.7016 12.6963H15.8006C15.4997 12.6963 15.2559 12.9399 15.2559 13.2405V15.1412C15.2559 15.4423 15.4997 15.6859 15.8006 15.6859H17.7016C18.0021 15.6859 18.246 15.4423 18.246 15.1412V13.2405Z" fill="#BFC5D1"/>
<path d="M8.74407 17.9927C8.74407 17.6916 8.50021 17.4482 8.19932 17.4482H6.29836C5.99781 17.4482 5.75391 17.6916 5.75391 17.9927V19.8931C5.75391 20.194 5.99781 20.4376 6.29836 20.4376H8.19932C8.50021 20.4376 8.74407 20.1939 8.74407 19.8931V17.9927Z" fill="#BFC5D1"/>
<path d="M13.495 17.9927C13.495 17.6916 13.2511 17.4482 12.9508 17.4482H11.0496C10.749 17.4482 10.5051 17.6916 10.5051 17.9927V19.8931C10.5051 20.194 10.749 20.4376 11.0496 20.4376H12.9508C13.2511 20.4376 13.495 20.1939 13.495 19.8931V17.9927Z" fill="#BFC5D1"/>
<path d="M18.246 17.9927C18.246 17.6916 18.0021 17.4482 17.7018 17.4482H15.8006C15.4997 17.4482 15.2559 17.6916 15.2559 17.9927V19.8931C15.2559 20.194 15.4997 20.4376 15.8006 20.4376H17.7018C18.0021 20.4376 18.246 20.1939 18.246 19.8931V17.9927Z" fill="#BFC5D1"/>
<path d="M21.6452 2.67156V5.57475C21.6452 6.88697 20.5807 7.94441 19.2686 7.94441H17.7694C16.4573 7.94441 15.3787 6.88697 15.3787 5.57475V2.66113H8.62146V5.57475C8.62146 6.88697 7.54288 7.94441 6.23096 7.94441H4.73148C3.41951 7.94441 2.35504 6.88697 2.35504 5.57475V2.67156C1.20836 2.70612 0.266113 3.65495 0.266113 4.8212V21.8353C0.266113 23.0235 1.22916 23.9993 2.41733 23.9993H21.5828C22.7692 23.9993 23.734 23.0215 23.734 21.8353V4.8212C23.734 3.65495 22.7919 2.70612 21.6452 2.67156ZM20.9489 20.7758C20.9489 21.2893 20.5325 21.7058 20.0188 21.7058H3.94036C3.42669 21.7058 3.01036 21.2893 3.01036 20.7758V11.9874C3.01036 11.4737 3.42664 11.0571 3.94036 11.0571H20.0188C20.5325 11.0571 20.9488 11.4737 20.9488 11.9874L20.9489 20.7758Z" fill="#BFC5D1"/>
<path d="M4.72619 6.38875H6.2091C6.65921 6.38875 7.02416 6.02434 7.02416 5.57423V0.814812C7.02416 0.364657 6.65921 0 6.2091 0H4.72619C4.27604 0 3.91113 0.364657 3.91113 0.814812V5.57423C3.91113 6.02434 4.27604 6.38875 4.72619 6.38875Z" fill="#BFC5D1"/>
<path d="M17.7503 6.38875H19.2332C19.683 6.38875 20.048 6.02434 20.048 5.57423V0.814812C20.048 0.364657 19.6831 0 19.2332 0H17.7503C17.3003 0 16.9353 0.364657 16.9353 0.814812V5.57423C16.9353 6.02434 17.3003 6.38875 17.7503 6.38875Z" fill="#BFC5D1"/>
</svg>
