<svg width="28" height="27" viewBox="0 0 28 27" fill="none" xmlns="http://www.w3.org/2000/svg">
<path d="M5.0603 17.5773H11.6011L10.8743 20.1209H5.78705L5.0603 17.5773Z" fill="#3C7EEA"/>
<path d="M16.6883 17.5773H23.2291L22.5024 20.1209H17.4151L16.6883 17.5773Z" fill="#3C7EEA"/>
<path d="M10.1476 23.8924H17.4151V22.8023H10.1476V23.8924Z" fill="#3C7EEA"/>
<path d="M5.41919 17.7604L8.27793 12.8534M11.1849 17.7604L8.27793 12.8534M8.27793 12.8534L8.27687 9.58329M22.8129 17.7603L19.9059 12.8534M16.9989 17.7604L19.9059 12.8534M19.9059 12.8534L19.9059 9.58325M22.8129 8.49254L19.9059 9.58325M5.41888 8.49254L8.27687 9.58329M8.27793 9.58325L8.27687 9.58329M8.27793 9.58325C8.27793 9.58325 11.6061 10.4138 13.7814 10.4477M8.27793 9.58325L13.7814 10.0844L19.9059 9.58325M19.9059 9.58325C19.9059 9.58325 16.1966 10.4854 13.7814 10.4477M13.7814 10.4477L13.7814 23.5293" stroke="#3C7EEA"/>
</svg>
