<svg width="20" height="19" viewBox="0 0 20 19" fill="none" xmlns="http://www.w3.org/2000/svg">
<path fill-rule="evenodd" clip-rule="evenodd" d="M15.5988 7.47446C15.7732 7.64887 15.8708 7.88841 15.8708 8.1326C15.8708 8.37678 15.7732 8.61864 15.5988 8.79074C15.4267 8.96516 15.1871 9.06283 14.9406 9.06283C14.6964 9.06283 14.4569 8.96516 14.285 8.79074C14.1106 8.61864 14.0104 8.37911 14.0104 8.1326C14.0104 7.88841 14.1106 7.64887 14.285 7.47446C14.4569 7.30236 14.6964 7.20236 14.9406 7.20236C15.1871 7.20236 15.4267 7.30236 15.5988 7.47446ZM16.7204 6.12313C16.7501 6.57173 16.4106 6.95941 15.962 6.98894C15.9438 6.99011 15.9257 6.9908 15.9076 6.9908C15.4825 6.9908 15.1245 6.6608 15.0962 6.23034C15.009 4.91127 14.1469 4.69475 13.9748 4.66475C13.5294 4.60382 13.2248 4.19429 13.2857 3.74894C13.3469 3.30336 13.7641 2.99429 14.2094 3.05405C15.015 3.16452 16.5769 3.94801 16.7204 6.12313ZM16.9474 8.81662C13.9334 12.1976 11.1881 14.8343 9.99992 15.9445C8.81248 14.8352 6.06945 12.201 3.05247 8.81662C1.83479 7.45081 1.53177 5.78499 2.22131 4.24638C2.86061 2.8194 4.23061 1.86057 5.63015 1.86057C8.4055 1.86057 9.03364 3.93638 9.09783 4.17964C9.20062 4.58987 9.56899 4.88383 9.99271 4.88383H10.0009C10.4234 4.88383 10.7943 4.5901 10.9018 4.1808C10.9639 3.94382 11.5895 1.86312 14.3699 1.86312C15.7692 1.86312 17.1392 2.82057 17.7788 4.24755C18.4681 5.78615 18.1653 7.45081 16.9474 8.81662ZM19.4762 3.52259C18.5276 1.38276 16.5232 0 14.37 0C12.2181 0 10.8223 0.956624 9.99995 1.99293C9.17762 0.956624 7.78181 0 5.63017 0C3.47692 0 1.47249 1.38276 0.523655 3.52259C-0.464253 5.75079 -0.0379735 8.23261 1.66389 10.1621C5.74041 14.784 9.34297 18.0607 9.37878 18.0931C9.55553 18.2534 9.77785 18.3333 9.99995 18.3333C10.2223 18.3333 10.4444 18.2534 10.6211 18.0931C10.6569 18.0607 14.2595 14.784 18.336 10.1621C20.0379 8.23261 20.4644 5.75079 19.4762 3.52259Z" fill="#3C7EEA"/>
</svg>
