<svg width="16" height="12" viewBox="0 0 16 12" fill="none" xmlns="http://www.w3.org/2000/svg">
<path d="M8 0C4.36364 0 1.25818 2.488 0 6C1.25818 9.512 4.36364 12 8 12C11.6364 12 14.7418 9.512 16 6C14.7418 2.488 11.6364 0 8 0ZM8 10C5.99273 10 4.36364 8.208 4.36364 6C4.36364 3.792 5.99273 2 8 2C10.0073 2 11.6364 3.792 11.6364 6C11.6364 8.208 10.0073 10 8 10ZM8 3.6C6.79273 3.6 5.81818 4.672 5.81818 6C5.81818 7.328 6.79273 8.4 8 8.4C9.20727 8.4 10.1818 7.328 10.1818 6C10.1818 4.672 9.20727 3.6 8 3.6Z" fill="#BFC5D1"/>
</svg>
