<svg width="228" height="89" viewBox="0 0 228 89" fill="none" xmlns="http://www.w3.org/2000/svg">
<circle cx="14.6156" cy="14.5165" r="14.1962" fill="#B8D4FF"/>
<rect x="40.7667" y="7.79297" width="65.7508" height="4.48301" fill="#DADADA"/>
<rect x="0.419434" y="37.6758" width="221.162" height="4.48301" fill="#DADADA"/>
<rect x="0.419434" y="46.6445" width="210.702" height="4.48301" fill="#DADADA"/>
<rect x="0.419434" y="55.6094" width="216.679" height="4.48301" fill="#DADADA"/>
<rect x="0.419434" y="64.5781" width="224.151" height="4.48301" fill="#DADADA"/>
<rect x="188.706" y="79.5156" width="8.96602" height="8.96602" rx="2" fill="#E7E7E7"/>
<rect x="203.65" y="79.5156" width="8.96602" height="8.96602" rx="2" fill="#E7E7E7"/>
<rect x="218.593" y="79.5156" width="8.96602" height="8.96602" rx="2" fill="#E7E7E7"/>
<path d="M42.1853 16.5566C42.3443 16.1163 42.967 16.1163 43.1259 16.5566L43.296 17.0278C43.3676 17.2259 43.5556 17.358 43.7663 17.358H44.1952C44.6922 17.358 44.8848 18.0045 44.4688 18.2765L44.2156 18.442C44.0217 18.5688 43.9403 18.8123 44.019 19.0303L44.1364 19.3557C44.2995 19.8072 43.7943 20.2067 43.3925 19.9439L42.9293 19.641C42.763 19.5323 42.5482 19.5323 42.382 19.641L41.9187 19.9439C41.5169 20.2067 41.0118 19.8072 41.1748 19.3557L41.2923 19.0303C41.371 18.8123 41.2896 18.5688 41.0956 18.442L40.8425 18.2765C40.4265 18.0045 40.6191 17.358 41.1161 17.358H41.5449C41.7556 17.358 41.9437 17.2259 42.0152 17.0278L42.1853 16.5566Z" fill="#FDD7AD"/>
<path d="M49.6288 16.5566C49.7878 16.1163 50.4104 16.1163 50.5694 16.5566L50.7395 17.0278C50.8111 17.2259 50.9991 17.358 51.2098 17.358H51.6386C52.1356 17.358 52.3282 18.0045 51.9123 18.2765L51.6591 18.442C51.4652 18.5688 51.3838 18.8123 51.4625 19.0303L51.5799 19.3557C51.7429 19.8072 51.2378 20.2067 50.836 19.9439L50.3727 19.641C50.2065 19.5323 49.9917 19.5323 49.8255 19.641L49.3622 19.9439C48.9604 20.2067 48.4553 19.8072 48.6183 19.3557L48.7358 19.0303C48.8144 18.8123 48.7331 18.5688 48.5391 18.442L48.2859 18.2765C47.87 18.0045 48.0626 17.358 48.5596 17.358H48.9884C49.1991 17.358 49.3872 17.2259 49.4587 17.0278L49.6288 16.5566Z" fill="#FDD7AD"/>
<path d="M56.7288 16.7174C56.8785 16.2568 57.5302 16.2568 57.6799 16.7174L57.7758 17.0125C57.8427 17.2185 58.0347 17.358 58.2513 17.358H58.5616C59.0459 17.358 59.2473 17.9778 58.8554 18.2625L58.6044 18.4449C58.4292 18.5722 58.3559 18.7979 58.4228 19.0039L58.5187 19.299C58.6684 19.7596 58.1411 20.1427 57.7493 19.858L57.4983 19.6756C57.323 19.5483 57.0857 19.5483 56.9105 19.6756L56.6595 19.858C56.2676 20.1427 55.7404 19.7596 55.8901 19.299L55.9859 19.0039C56.0529 18.7979 55.9795 18.5722 55.8043 18.4449L55.5533 18.2625C55.1614 17.9778 55.3628 17.358 55.8472 17.358H56.1574C56.374 17.358 56.566 17.2185 56.633 17.0125L56.7288 16.7174Z" fill="#FDD7AD"/>
<path d="M63.8393 16.5566C63.9982 16.1163 64.6209 16.1163 64.7798 16.5566L64.95 17.0278C65.0215 17.2259 65.2096 17.358 65.4203 17.358H65.8491C66.3461 17.358 66.5387 18.0045 66.1227 18.2765L65.8696 18.442C65.6756 18.5688 65.5942 18.8123 65.6729 19.0303L65.7904 19.3557C65.9534 19.8072 65.4482 20.2067 65.0465 19.9439L64.5832 19.641C64.417 19.5323 64.2021 19.5323 64.0359 19.641L63.5727 19.9439C63.1709 20.2067 62.6657 19.8072 62.8287 19.3557L62.9462 19.0303C63.0249 18.8123 62.9435 18.5688 62.7495 18.442L62.4964 18.2765C62.0804 18.0045 62.273 17.358 62.77 17.358H63.1989C63.4095 17.358 63.5976 17.2259 63.6691 17.0278L63.8393 16.5566Z" fill="#FDD7AD"/>
<path d="M71.2827 16.5566C71.4417 16.1163 72.0644 16.1163 72.2233 16.5566L72.3934 17.0278C72.465 17.2259 72.6531 17.358 72.8637 17.358H73.2926C73.7896 17.358 73.9822 18.0045 73.5662 18.2765L73.313 18.442C73.1191 18.5688 73.0377 18.8123 73.1164 19.0303L73.2339 19.3557C73.3969 19.8072 72.8917 20.2067 72.4899 19.9439L72.0267 19.641C71.8604 19.5323 71.6456 19.5323 71.4794 19.641L71.0161 19.9439C70.6143 20.2067 70.1092 19.8072 70.2722 19.3557L70.3897 19.0303C70.4684 18.8123 70.387 18.5688 70.193 18.442L69.9399 18.2765C69.5239 18.0045 69.7165 17.358 70.2135 17.358H70.6423C70.853 17.358 71.0411 17.2259 71.1126 17.0278L71.2827 16.5566Z" fill="#FDD7AD"/>
</svg>
