<svg width="138" height="177" viewBox="0 0 138 177" fill="none" xmlns="http://www.w3.org/2000/svg">
<path opacity="0.05" fill-rule="evenodd" clip-rule="evenodd" d="M137.423 4.48301C137.423 6.95891 135.416 8.96602 132.94 8.96602C130.464 8.96602 128.457 6.95891 128.457 4.48301C128.457 2.00711 130.464 0 132.94 0C135.416 0 137.423 2.00711 137.423 4.48301ZM132.94 32.8759C135.416 32.8759 137.423 30.8688 137.423 28.3929C137.423 25.917 135.416 23.9098 132.94 23.9098C130.464 23.9098 128.457 25.917 128.457 28.3929C128.457 30.8688 130.464 32.8759 132.94 32.8759ZM137.423 52.2949C137.423 54.7708 135.416 56.7779 132.94 56.7779C130.464 56.7779 128.457 54.7708 128.457 52.2949C128.457 49.819 130.464 47.8119 132.94 47.8119C135.416 47.8119 137.423 49.819 137.423 52.2949ZM132.94 80.6917C135.416 80.6917 137.423 78.6845 137.423 76.2086C137.423 73.7327 135.416 71.7256 132.94 71.7256C130.464 71.7256 128.457 73.7327 128.457 76.2086C128.457 78.6845 130.464 80.6917 132.94 80.6917ZM137.423 100.126C137.423 102.602 135.416 104.609 132.94 104.609C130.464 104.609 128.457 102.602 128.457 100.126C128.457 97.6504 130.464 95.6433 132.94 95.6433C135.416 95.6433 137.423 97.6504 137.423 100.126ZM132.94 128.515C135.416 128.515 137.423 126.508 137.423 124.032C137.423 121.556 135.416 119.549 132.94 119.549C130.464 119.549 128.457 121.556 128.457 124.032C128.457 126.508 130.464 128.515 132.94 128.515ZM137.423 147.942C137.423 150.418 135.416 152.425 132.94 152.425C130.464 152.425 128.457 150.418 128.457 147.942C128.457 145.466 130.464 143.459 132.94 143.459C135.416 143.459 137.423 145.466 137.423 147.942ZM-10.517 176.331C-8.04109 176.331 -6.03398 174.324 -6.03398 171.848C-6.03398 169.372 -8.04109 167.365 -10.517 167.365C-12.9929 167.365 -15 169.372 -15 171.848C-15 174.324 -12.9929 176.331 -10.517 176.331ZM17.8754 171.848C17.8754 174.324 15.8683 176.331 13.3924 176.331C10.9165 176.331 8.90936 174.324 8.90936 171.848C8.90936 169.372 10.9165 167.365 13.3924 167.365C15.8683 167.365 17.8754 169.372 17.8754 171.848ZM37.302 176.331C39.7779 176.331 41.785 174.324 41.785 171.848C41.785 169.372 39.7779 167.365 37.302 167.365C34.8261 167.365 32.819 169.372 32.819 171.848C32.819 174.324 34.8261 176.331 37.302 176.331ZM65.6939 171.848C65.6939 174.324 63.6867 176.331 61.2108 176.331C58.7349 176.331 56.7278 174.324 56.7278 171.848C56.7278 169.372 58.7349 167.365 61.2108 167.365C63.6867 167.365 65.6939 169.372 65.6939 171.848ZM85.1207 176.331C87.5966 176.331 89.6037 174.324 89.6037 171.848C89.6037 169.372 87.5966 167.365 85.1207 167.365C82.6448 167.365 80.6377 169.372 80.6377 171.848C80.6377 174.324 82.6448 176.331 85.1207 176.331ZM113.513 171.848C113.513 174.324 111.506 176.331 109.03 176.331C106.554 176.331 104.547 174.324 104.547 171.848C104.547 169.372 106.554 167.365 109.03 167.365C111.506 167.365 113.513 169.372 113.513 171.848ZM137.423 171.848C137.423 174.324 135.416 176.331 132.94 176.331C130.464 176.331 128.457 174.324 128.457 171.848C128.457 169.372 130.464 167.365 132.94 167.365C135.416 167.365 137.423 169.372 137.423 171.848ZM109.03 152.425C111.506 152.425 113.513 150.418 113.513 147.942C113.513 145.466 111.506 143.459 109.03 143.459C106.554 143.459 104.547 145.466 104.547 147.942C104.547 150.418 106.554 152.425 109.03 152.425ZM89.6037 147.942C89.6037 150.418 87.5966 152.425 85.1207 152.425C82.6448 152.425 80.6377 150.418 80.6377 147.942C80.6377 145.466 82.6448 143.459 85.1207 143.459C87.5966 143.459 89.6037 145.466 89.6037 147.942ZM61.2108 152.425C63.6867 152.425 65.6939 150.418 65.6939 147.942C65.6939 145.466 63.6867 143.459 61.2108 143.459C58.7349 143.459 56.7278 145.466 56.7278 147.942C56.7278 150.418 58.7349 152.425 61.2108 152.425ZM41.785 147.942C41.785 150.418 39.7779 152.425 37.302 152.425C34.8261 152.425 32.819 150.418 32.819 147.942C32.819 145.466 34.8261 143.459 37.302 143.459C39.7779 143.459 41.785 145.466 41.785 147.942ZM13.3924 152.425C15.8683 152.425 17.8754 150.418 17.8754 147.942C17.8754 145.466 15.8683 143.459 13.3924 143.459C10.9165 143.459 8.90936 145.466 8.90936 147.942C8.90936 150.418 10.9165 152.425 13.3924 152.425ZM-6.03398 147.942C-6.03398 150.418 -8.04109 152.425 -10.517 152.425C-12.9929 152.425 -15 150.418 -15 147.942C-15 145.466 -12.9929 143.459 -10.517 143.459C-8.04109 143.459 -6.03398 145.466 -6.03398 147.942ZM113.513 124.032C113.513 126.508 111.506 128.515 109.03 128.515C106.554 128.515 104.547 126.508 104.547 124.032C104.547 121.556 106.554 119.549 109.03 119.549C111.506 119.549 113.513 121.556 113.513 124.032ZM85.1207 128.515C87.5966 128.515 89.6037 126.508 89.6037 124.032C89.6037 121.556 87.5966 119.549 85.1207 119.549C82.6448 119.549 80.6377 121.556 80.6377 124.032C80.6377 126.508 82.6448 128.515 85.1207 128.515ZM65.6939 124.032C65.6939 126.508 63.6867 128.515 61.2108 128.515C58.7349 128.515 56.7278 126.508 56.7278 124.032C56.7278 121.556 58.7349 119.549 61.2108 119.549C63.6867 119.549 65.6939 121.556 65.6939 124.032ZM37.302 128.515C39.7779 128.515 41.785 126.508 41.785 124.032C41.785 121.556 39.7779 119.549 37.302 119.549C34.8261 119.549 32.819 121.556 32.819 124.032C32.819 126.508 34.8261 128.515 37.302 128.515ZM17.8754 124.032C17.8754 126.508 15.8683 128.515 13.3924 128.515C10.9165 128.515 8.90936 126.508 8.90936 124.032C8.90936 121.556 10.9165 119.549 13.3924 119.549C15.8683 119.549 17.8754 121.556 17.8754 124.032ZM-10.517 128.515C-8.04109 128.515 -6.03398 126.508 -6.03398 124.032C-6.03398 121.556 -8.04109 119.549 -10.517 119.549C-12.9929 119.549 -15 121.556 -15 124.032C-15 126.508 -12.9929 128.515 -10.517 128.515ZM109.03 104.609C111.506 104.609 113.513 102.602 113.513 100.126C113.513 97.6504 111.506 95.6433 109.03 95.6433C106.554 95.6433 104.547 97.6504 104.547 100.126C104.547 102.602 106.554 104.609 109.03 104.609ZM89.6037 100.126C89.6037 102.602 87.5966 104.609 85.1207 104.609C82.6448 104.609 80.6377 102.602 80.6377 100.126C80.6377 97.6504 82.6448 95.6433 85.1207 95.6433C87.5966 95.6433 89.6037 97.6504 89.6037 100.126ZM61.2108 104.609C63.6867 104.609 65.6939 102.602 65.6939 100.126C65.6939 97.6504 63.6867 95.6433 61.2108 95.6433C58.7349 95.6433 56.7278 97.6504 56.7278 100.126C56.7278 102.602 58.7349 104.609 61.2108 104.609ZM41.785 100.126C41.785 102.602 39.7779 104.609 37.302 104.609C34.8261 104.609 32.819 102.602 32.819 100.126C32.819 97.6504 34.8261 95.6433 37.302 95.6433C39.7779 95.6433 41.785 97.6504 41.785 100.126ZM13.3924 104.609C15.8683 104.609 17.8754 102.602 17.8754 100.126C17.8754 97.6504 15.8683 95.6433 13.3924 95.6433C10.9165 95.6433 8.90936 97.6504 8.90936 100.126C8.90936 102.602 10.9165 104.609 13.3924 104.609ZM-6.03398 100.126C-6.03398 102.602 -8.04109 104.609 -10.517 104.609C-12.9929 104.609 -15 102.602 -15 100.126C-15 97.6504 -12.9929 95.6433 -10.517 95.6433C-8.04109 95.6433 -6.03398 97.6504 -6.03398 100.126ZM113.513 76.2086C113.513 78.6845 111.506 80.6917 109.03 80.6917C106.554 80.6917 104.547 78.6845 104.547 76.2086C104.547 73.7327 106.554 71.7256 109.03 71.7256C111.506 71.7256 113.513 73.7327 113.513 76.2086ZM85.1207 80.6917C87.5966 80.6917 89.6037 78.6845 89.6037 76.2086C89.6037 73.7327 87.5966 71.7256 85.1207 71.7256C82.6448 71.7256 80.6377 73.7327 80.6377 76.2086C80.6377 78.6845 82.6448 80.6917 85.1207 80.6917ZM65.6939 76.2086C65.6939 78.6845 63.6867 80.6917 61.2108 80.6917C58.7349 80.6917 56.7278 78.6845 56.7278 76.2086C56.7278 73.7327 58.7349 71.7256 61.2108 71.7256C63.6867 71.7256 65.6939 73.7327 65.6939 76.2086ZM37.302 80.6917C39.7779 80.6917 41.785 78.6845 41.785 76.2086C41.785 73.7327 39.7779 71.7256 37.302 71.7256C34.8261 71.7256 32.819 73.7327 32.819 76.2086C32.819 78.6845 34.8261 80.6917 37.302 80.6917ZM17.8754 76.2086C17.8754 78.6845 15.8683 80.6917 13.3924 80.6917C10.9165 80.6917 8.90936 78.6845 8.90936 76.2086C8.90936 73.7327 10.9165 71.7256 13.3924 71.7256C15.8683 71.7256 17.8754 73.7327 17.8754 76.2086ZM-10.517 80.6917C-8.04109 80.6917 -6.03398 78.6845 -6.03398 76.2086C-6.03398 73.7327 -8.04109 71.7256 -10.517 71.7256C-12.9929 71.7256 -15 73.7327 -15 76.2086C-15 78.6845 -12.9929 80.6917 -10.517 80.6917ZM109.03 56.7779C111.506 56.7779 113.513 54.7708 113.513 52.2949C113.513 49.819 111.506 47.8119 109.03 47.8119C106.554 47.8119 104.547 49.819 104.547 52.2949C104.547 54.7708 106.554 56.7779 109.03 56.7779ZM89.6037 52.2949C89.6037 54.7708 87.5966 56.7779 85.1207 56.7779C82.6448 56.7779 80.6377 54.7708 80.6377 52.2949C80.6377 49.819 82.6448 47.8119 85.1207 47.8119C87.5966 47.8119 89.6037 49.819 89.6037 52.2949ZM61.2108 56.7779C63.6867 56.7779 65.6939 54.7708 65.6939 52.2949C65.6939 49.819 63.6867 47.8119 61.2108 47.8119C58.7349 47.8119 56.7278 49.819 56.7278 52.2949C56.7278 54.7708 58.7349 56.7779 61.2108 56.7779ZM41.785 52.2949C41.785 54.7708 39.7779 56.7779 37.302 56.7779C34.8261 56.7779 32.819 54.7708 32.819 52.2949C32.819 49.819 34.8261 47.8119 37.302 47.8119C39.7779 47.8119 41.785 49.819 41.785 52.2949ZM13.3924 56.7779C15.8683 56.7779 17.8754 54.7708 17.8754 52.2949C17.8754 49.819 15.8683 47.8119 13.3924 47.8119C10.9165 47.8119 8.90936 49.819 8.90936 52.2949C8.90936 54.7708 10.9165 56.7779 13.3924 56.7779ZM-6.03398 52.2949C-6.03398 54.7708 -8.04109 56.7779 -10.517 56.7779C-12.9929 56.7779 -15 54.7708 -15 52.2949C-15 49.819 -12.9929 47.8119 -10.517 47.8119C-8.04109 47.8119 -6.03398 49.819 -6.03398 52.2949ZM113.513 28.3929C113.513 30.8688 111.506 32.8759 109.03 32.8759C106.554 32.8759 104.547 30.8688 104.547 28.3929C104.547 25.917 106.554 23.9098 109.03 23.9098C111.506 23.9098 113.513 25.917 113.513 28.3929ZM85.1207 32.8759C87.5966 32.8759 89.6037 30.8688 89.6037 28.3929C89.6037 25.917 87.5966 23.9098 85.1207 23.9098C82.6448 23.9098 80.6377 25.917 80.6377 28.3929C80.6377 30.8688 82.6448 32.8759 85.1207 32.8759ZM65.6939 28.3929C65.6939 30.8688 63.6867 32.8759 61.2108 32.8759C58.7349 32.8759 56.7278 30.8688 56.7278 28.3929C56.7278 25.917 58.7349 23.9098 61.2108 23.9098C63.6867 23.9098 65.6939 25.917 65.6939 28.3929ZM37.302 32.8759C39.7779 32.8759 41.785 30.8688 41.785 28.3929C41.785 25.917 39.7779 23.9098 37.302 23.9098C34.8261 23.9098 32.819 25.917 32.819 28.3929C32.819 30.8688 34.8261 32.8759 37.302 32.8759ZM17.8754 28.3929C17.8754 30.8688 15.8683 32.8759 13.3924 32.8759C10.9165 32.8759 8.90936 30.8688 8.90936 28.3929C8.90936 25.917 10.9165 23.9098 13.3924 23.9098C15.8683 23.9098 17.8754 25.917 17.8754 28.3929ZM-10.517 32.8759C-8.04109 32.8759 -6.03398 30.8688 -6.03398 28.3929C-6.03398 25.917 -8.04109 23.9098 -10.517 23.9098C-12.9929 23.9098 -15 25.917 -15 28.3929C-15 30.8688 -12.9929 32.8759 -10.517 32.8759ZM109.03 8.96602C111.506 8.96602 113.513 6.95891 113.513 4.48301C113.513 2.00711 111.506 0 109.03 0C106.554 0 104.547 2.00711 104.547 4.48301C104.547 6.95891 106.554 8.96602 109.03 8.96602ZM89.6037 4.48301C89.6037 6.95891 87.5966 8.96602 85.1207 8.96602C82.6448 8.96602 80.6377 6.95891 80.6377 4.48301C80.6377 2.00711 82.6448 0 85.1207 0C87.5966 0 89.6037 2.00711 89.6037 4.48301ZM61.2108 8.96602C63.6867 8.96602 65.6939 6.95891 65.6939 4.48301C65.6939 2.00711 63.6867 0 61.2108 0C58.7349 0 56.7278 2.00711 56.7278 4.48301C56.7278 6.95891 58.7349 8.96602 61.2108 8.96602ZM41.785 4.48301C41.785 6.95891 39.7779 8.96602 37.302 8.96602C34.8261 8.96602 32.819 6.95891 32.819 4.48301C32.819 2.00711 34.8261 0 37.302 0C39.7779 0 41.785 2.00711 41.785 4.48301ZM13.3924 8.96602C15.8683 8.96602 17.8754 6.95891 17.8754 4.48301C17.8754 2.00711 15.8683 0 13.3924 0C10.9165 0 8.90936 2.00711 8.90936 4.48301C8.90936 6.95891 10.9165 8.96602 13.3924 8.96602ZM-6.03398 4.48301C-6.03398 6.95891 -8.04109 8.96602 -10.517 8.96602C-12.9929 8.96602 -15 6.95891 -15 4.48301C-15 2.00711 -12.9929 0 -10.517 0C-8.04109 0 -6.03398 2.00711 -6.03398 4.48301Z" fill="#9BC1FF"/>
</svg>
