<svg width="1920" height="920" viewBox="0 0 1920 920" fill="none" xmlns="http://www.w3.org/2000/svg">
<path fill-rule="evenodd" clip-rule="evenodd" d="M194.032 100.569C73.7019 113.777 -5 122.846 -5 122.846V728.052C-5 728.052 336.782 862.543 592.18 912.603C782.226 949.854 1921 822.191 1921 822.191V146.755C1921 146.755 1537.9 30.1966 1401.94 3.29853C1339.85 -8.98631 1040.99 14.8868 734.6 44.4524L753.729 58.7546C816.539 105.716 829.232 194.586 782.081 257.253L615.16 479.097C568.008 541.763 478.867 554.495 416.057 507.534L191.727 339.81C128.917 292.849 116.224 203.979 163.376 141.312L194.032 100.569Z" fill="#F6FAFF"/>
</svg>
