<svg width="47" height="47" viewBox="0 0 47 47" fill="none" xmlns="http://www.w3.org/2000/svg">
<path d="M25.5977 10.3449C25.5767 9.83332 25.2561 9.38208 24.7798 9.19358L1.7722 0.0909647C1.29168 -0.0992237 0.744563 0.014397 0.379474 0.379616C0.0143842 0.744834 -0.099107 1.29208 0.0908224 1.77234L9.19331 24.7802C9.38169 25.2566 9.83306 25.5769 10.3447 25.5981C10.3627 25.5989 10.3804 25.5993 10.3983 25.5993C10.8895 25.5993 11.3403 25.3209 11.5594 24.8779L15.9656 15.9657L24.8774 11.56C25.3365 11.3328 25.6188 10.8567 25.5977 10.3449Z" fill="#1565D8"/>
<path d="M46.4378 31.6135L41.9904 28.5639C41.5937 28.2917 41.0793 28.2619 40.654 28.4859C40.2287 28.7099 39.9623 29.1514 39.9623 29.6324V30.6027H34.7651V25.4057H35.7356C35.7367 25.4058 35.7375 25.4058 35.7382 25.4057C36.4538 25.4057 37.0338 24.8256 37.0338 24.1102C37.0338 23.8109 36.9326 23.5356 36.7622 23.3165L33.7542 18.9301C33.5128 18.5778 33.113 18.3672 32.6859 18.3672C32.2586 18.3672 31.8588 18.5778 31.6174 18.9301L28.5677 23.3775C28.2955 23.7741 28.2658 24.2886 28.4897 24.714C28.7138 25.1392 29.1552 25.4057 29.6361 25.4057H30.6065V30.6027H25.4096V29.6322C25.4096 29.1514 25.1431 28.7102 24.7179 28.4858C24.2925 28.2618 23.7779 28.2917 23.3814 28.5638L18.934 31.6135C18.5816 31.8552 18.3711 32.2548 18.3711 32.682C18.3711 33.1093 18.5816 33.5089 18.934 33.7504L23.3814 36.8002C23.7781 37.0721 24.2923 37.1021 24.7179 36.8781C25.1431 36.6541 25.4096 36.2126 25.4096 35.7317V34.7612H30.6065V39.9584H29.6361C29.1552 39.9584 28.7141 40.2247 28.4897 40.6502C28.2657 41.0755 28.2956 41.5901 28.5677 41.9865L31.6174 46.4339C31.8588 46.7861 32.2586 46.9968 32.6859 46.9968C33.113 46.9968 33.5128 46.7861 33.7542 46.4339L36.804 41.9865C37.076 41.5899 37.1058 41.0755 36.882 40.6502C36.6578 40.2247 36.2166 39.9584 35.7356 39.9584H34.7651V34.7612H39.9623V35.7317C39.9623 36.2125 40.2287 36.6538 40.654 36.8781C41.0792 37.1021 41.5939 37.0721 41.9904 36.8002L46.4376 33.7504C46.79 33.5089 47.0006 33.1093 47.0006 32.682C47.0006 32.255 46.79 31.8553 46.4378 31.6135Z" fill="#AECAF3"/>
</svg>
