<svg width="46" height="46" viewBox="0 0 46 46" fill="none" xmlns="http://www.w3.org/2000/svg">
<path d="M42.8569 16.8415C44.0962 15.8857 45.1121 16.4088 45.1121 18.0005V44.0583C45.1121 45.6499 44.0962 46.173 42.8569 45.2174L36.0891 40.0037C34.8503 39.0483 33.834 36.9639 33.834 35.3723V26.6866C33.834 25.0945 34.8503 23.0108 36.0891 22.055L42.8569 16.8415ZM5.63898 3.52431C2.52499 3.52431 0 6.11697 0 9.31483C0 12.5125 2.52499 15.1055 5.63898 15.1055C8.75342 15.1055 11.2781 12.5125 11.2781 9.31483C11.2781 6.11697 8.75342 3.52431 5.63898 3.52431ZM22.5561 0.628906C18.6628 0.628906 15.5075 3.86916 15.5075 7.86708C15.5075 11.865 18.6628 15.1055 22.5561 15.1055C26.4492 15.1055 29.605 11.8651 29.605 7.86708C29.605 3.86906 26.4492 0.628906 22.5561 0.628906ZM11.2781 23.7913H31.0149V41.163C31.0149 42.7635 29.7536 44.0583 28.1949 44.0583H2.81963C1.26092 44.0584 0 42.7635 0 41.163V20.8959C0 19.2954 1.2611 18.0005 2.81963 18.0005H28.1949C29.7536 18.0005 31.0149 19.2957 31.0149 20.8959H11.2781V23.7913ZM11.2781 35.3723C11.2781 33.7722 10.0169 32.4774 8.45851 32.4774C6.90008 32.4774 5.63888 33.7722 5.63888 35.3723C5.63888 36.9728 6.90008 38.2672 8.45851 38.2672C10.0169 38.2672 11.2781 36.9728 11.2781 35.3723Z" fill="url(#paint0_radial)"/>
<defs>
<radialGradient id="paint0_radial" cx="0" cy="0" r="1" gradientUnits="userSpaceOnUse" gradientTransform="translate(22.556 23.1622) rotate(90) scale(22.5333 22.556)">
<stop offset="0.46875" stop-color="#80D0F0"/>
<stop offset="0.901042" stop-color="#44C0F1"/>
</radialGradient>
</defs>
</svg>
