<svg width="47" height="49" viewBox="0 0 47 49" fill="none" xmlns="http://www.w3.org/2000/svg">
<g clip-path="url(#clip0)">
<path d="M23.4995 30.3154V11.9102C22.9914 11.9584 22.4891 12.0399 21.978 12.064H7.34427C6.53357 12.064 5.87561 12.7396 5.87561 13.5721V15.0802H1.46964C0.658936 15.0802 0.000976562 15.7559 0.000976562 16.5884V25.6371C0.000976562 26.4696 0.658936 27.1453 1.46964 27.1453H5.87561V28.6534C5.87561 29.4859 6.53357 30.1615 7.34427 30.1615H8.23428L14.1383 46.3226C14.4996 47.2909 15.3073 47.9936 16.3001 48.1987C16.4969 48.241 16.6937 48.2621 16.8876 48.2621C17.6719 48.2621 18.418 47.9424 18.9525 47.3693L22.4803 43.7769C23.382 42.8509 23.5964 41.4061 23.0207 40.2871L18.0919 30.1615H21.9927C22.4979 30.1857 22.9972 30.2671 23.4995 30.3154Z" fill="#AECAF3"/>
<path d="M46.7578 0.729934C46.7285 0.678658 46.702 0.63643 46.6639 0.58817C46.5023 0.377032 46.2996 0.205105 46.05 0.105569C46.0411 0.102553 46.0353 0.0904877 46.0265 0.0874714C45.9971 0.0784227 45.9706 0.0935039 45.9413 0.0844552C45.8091 0.0452438 45.6769 0 45.53 0C45.4302 0 45.3421 0.0392113 45.2451 0.0603251C45.1893 0.0723901 45.1364 0.0754064 45.0806 0.0935039C44.828 0.177959 44.6107 0.322739 44.4374 0.521812C44.4256 0.533877 44.408 0.536894 44.3962 0.548959C39.817 6.25873 33.4312 10.0773 26.4375 11.4769V30.7537C33.4312 32.1533 39.817 35.9689 44.3962 41.6786C44.408 41.6937 44.4286 41.6997 44.4432 41.7178C44.546 41.8355 44.6724 41.929 44.8075 42.0074C44.8515 42.0345 44.8868 42.0738 44.9308 42.0949C45.1159 42.1763 45.3156 42.2276 45.53 42.2276C45.6975 42.2276 45.862 42.1974 46.0265 42.1401C46.0353 42.1371 46.0411 42.125 46.05 42.122C46.2996 42.0225 46.5023 41.8536 46.6639 41.6394C46.6991 41.5912 46.7255 41.5489 46.7578 41.4977C46.8988 41.2654 46.9987 41.009 46.9987 40.7195V1.50813C46.9987 1.21857 46.8988 0.962186 46.7578 0.729934Z" fill="#1565D8"/>
</g>
<defs>
<clipPath id="clip0">
<rect width="47" height="48.2631" fill="white"/>
</clipPath>
</defs>
</svg>
