<svg width="38" height="46" viewBox="0 0 38 46" fill="none" xmlns="http://www.w3.org/2000/svg">
<path d="M30.7946 22.8594H29.8209V21.9011C29.8209 21.3721 29.3847 20.9427 28.8471 20.9427H3.53099C2.99541 20.9427 2.55726 21.372 2.55726 21.9011V41.0677C2.55726 43.7089 4.74223 45.8594 7.42574 45.8594H24.9523C27.6378 45.8594 29.8208 43.7089 29.8208 41.0677V36.276H30.7945C34.5549 36.276 37.6104 33.2688 37.6104 29.5677C37.6104 25.8685 34.555 22.8594 30.7946 22.8594ZM30.7946 34.3594H29.8209V24.7761H30.7946C33.4801 24.7761 35.6631 26.9266 35.6631 29.5677C35.6631 32.2089 33.4801 34.3594 30.7946 34.3594ZM23.005 19.026H26.8997C27.2697 19.026 27.6106 18.819 27.7741 18.4894L30.74 12.54C32.7011 12.264 34.1752 10.5448 34.4751 8.06463C34.8548 4.92125 33.256 1.0611 28.8432 0.0108121C28.4517 -0.0811947 28.0486 0.0702424 27.8188 0.388436C27.589 0.710417 27.5832 1.13594 27.8013 1.46751C28.8275 3.01235 28.2083 3.92467 27.1119 5.28743C26.6933 5.8068 26.296 6.30135 26.0584 6.85912C25.6008 7.92287 25.5774 9.04606 25.9902 10.0139C26.1714 10.4395 26.4459 10.8209 26.777 11.162L22.929 16.5095L22.6856 16.8526L22.2085 17.5158C22.0001 17.8091 21.9709 18.1924 22.1403 18.5086C22.3097 18.8248 22.6408 19.026 23.005 19.026ZM27.852 7.60274C27.9883 7.2827 28.3038 6.89169 28.6388 6.47956C29.3788 5.55958 30.3836 4.30793 30.2726 2.68068C32.0993 3.90732 32.7594 6.03105 32.5413 7.8365C32.3816 9.14749 31.6708 10.677 30.1889 10.677H30.1869L28.5258 10.1346C28.185 9.90071 27.928 9.61131 27.7838 9.27207C27.5755 8.77383 27.595 8.19881 27.852 7.60274ZM2.08609 7.66402C1.76092 7.47041 1.35192 7.48195 1.03641 7.69088C0.722866 7.90359 0.561219 8.27356 0.62357 8.64159L1.53101 13.993L6.2476 10.1193C6.24769 10.1193 2.08609 7.66402 2.08609 7.66402ZM5.47845 19.026H11.342C11.862 19.026 12.2768 18.6216 12.3041 18.1157C12.3313 18.6216 12.7462 19.026 13.268 19.026H21.0576C21.5951 19.026 22.0314 18.5986 22.0314 18.0677V17.1093H19.5971C19.0615 17.1093 18.6233 16.6818 18.6233 16.1509C18.6233 15.622 19.0615 15.1926 19.5971 15.1926H22.0314V13.2759H17.1629C16.6273 13.2759 16.1891 12.8485 16.1891 12.3175C16.1891 11.7886 16.6273 11.3592 17.1629 11.3592H22.0314V9.44253H19.5971C19.0615 9.44253 18.6233 9.01507 18.6233 8.48416C18.6233 7.95519 19.0615 7.52579 19.5971 7.52579H22.0314V5.60941H17.1629C16.6273 5.60941 16.1891 5.18195 16.1891 4.65104C16.1891 4.12207 16.6273 3.69267 17.1629 3.69267H22.0314V0.817743C22.0313 0.288682 21.5951 -0.140625 21.0576 -0.140625H13.268C12.7325 -0.140625 12.2943 0.288682 12.2943 0.817743V17.9757C12.271 17.7458 12.1775 17.533 12.0158 17.3797L7.69849 11.4265L2.46977 15.7141L4.70152 18.6428C4.88249 18.8842 5.17269 19.026 5.47845 19.026Z" fill="url(#paint0_radial)"/>
<defs>
<radialGradient id="paint0_radial" cx="0" cy="0" r="1" gradientUnits="userSpaceOnUse" gradientTransform="translate(19.1104 22.8594) rotate(90) scale(23 18.5)">
<stop stop-color="#FDD6D1"/>
<stop offset="1" stop-color="#FCA99E"/>
</radialGradient>
</defs>
</svg>
