<svg width="46" height="47" viewBox="0 0 46 47" fill="none" xmlns="http://www.w3.org/2000/svg">
<g clip-path="url(#clip0)">
<path d="M22.9451 29.0995V11.4336C22.4574 11.4799 21.9753 11.5581 21.4847 11.5812H7.43883C6.66069 11.5812 6.02916 12.2297 6.02916 13.0288V14.4763H1.80017C1.02203 14.4763 0.390503 15.1248 0.390503 15.9239V24.6092C0.390503 25.4082 1.02203 26.0567 1.80017 26.0567H6.02916V27.5043C6.02916 28.3033 6.66069 28.9518 7.43883 28.9518H8.29308L13.9599 44.4638C14.3067 45.3931 15.082 46.0677 16.035 46.2645C16.2239 46.3051 16.4128 46.3253 16.5988 46.3253C17.3516 46.3253 18.0677 46.0184 18.5808 45.4684L21.9668 42.0203C22.8324 41.1315 23.0382 39.7448 22.4856 38.6707L17.7548 28.9518H21.4988C21.9837 28.975 22.463 29.0532 22.9451 29.0995Z" fill="url(#paint0_radial)"/>
<path d="M45.269 0.700614C45.2408 0.651397 45.2154 0.610866 45.1788 0.564544C45.0237 0.361887 44.8292 0.196867 44.5895 0.101328C44.5811 0.0984333 44.5754 0.0868529 44.567 0.0839578C44.5388 0.0752725 44.5134 0.089748 44.4852 0.0810627C44.3584 0.0434265 44.2315 0 44.0905 0C43.9947 0 43.9101 0.0376363 43.817 0.057902C43.7635 0.0694823 43.7127 0.0723774 43.6592 0.089748C43.4167 0.170811 43.2081 0.309775 43.0417 0.500852C43.0305 0.512432 43.0135 0.515327 43.0023 0.526908C38.6069 6.00733 32.4777 9.67252 25.7649 11.0158V29.5184C32.4777 30.8617 38.6069 34.524 43.0023 40.0045C43.0135 40.0189 43.0333 40.0247 43.0474 40.0421C43.146 40.155 43.2673 40.2448 43.397 40.32C43.4393 40.3461 43.4731 40.3837 43.5154 40.404C43.693 40.4822 43.8847 40.5314 44.0905 40.5314C44.2512 40.5314 44.4091 40.5024 44.567 40.4474C44.5754 40.4445 44.5811 40.4329 44.5895 40.43C44.8292 40.3345 45.0237 40.1724 45.1788 39.9668C45.2126 39.9205 45.238 39.88 45.269 39.8308C45.4043 39.6078 45.5002 39.3617 45.5002 39.0838V1.44755C45.5002 1.16962 45.4043 0.923536 45.269 0.700614Z" fill="url(#paint1_radial)"/>
</g>
<defs>
<radialGradient id="paint0_radial" cx="0" cy="0" r="1" gradientUnits="userSpaceOnUse" gradientTransform="translate(11.6678 28.8795) rotate(90) scale(17.4459 11.2773)">
<stop stop-color="#F0C3AC"/>
<stop offset="1" stop-color="#EEA987"/>
</radialGradient>
<radialGradient id="paint1_radial" cx="0" cy="0" r="1" gradientUnits="userSpaceOnUse" gradientTransform="translate(35.6325 20.2657) rotate(90) scale(20.2657 9.86765)">
<stop stop-color="#F0C3AC"/>
<stop offset="1" stop-color="#EEA987"/>
</radialGradient>
<clipPath id="clip0">
<rect x="0.389404" width="45.1121" height="46.3245" fill="white"/>
</clipPath>
</defs>
</svg>
