<svg width="47" height="41" viewBox="0 0 47 41" fill="none" xmlns="http://www.w3.org/2000/svg">
<path fill-rule="evenodd" clip-rule="evenodd" d="M3 0C1.34315 0 0 1.34315 0 3V8.05714H47V3C47 1.34315 45.6569 0 44 0H3ZM6.22266 5C6.77494 5 7.22266 4.55228 7.22266 4C7.22266 3.44772 6.77494 3 6.22266 3C5.67037 3 5.22266 3.44772 5.22266 4C5.22266 4.55228 5.67037 5 6.22266 5ZM11.4004 4C11.4004 4.55228 10.9527 5 10.4004 5C9.84811 5 9.40039 4.55228 9.40039 4C9.40039 3.44772 9.84811 3 10.4004 3C10.9527 3 11.4004 3.44772 11.4004 4ZM14.5781 5C15.1304 5 15.5781 4.55228 15.5781 4C15.5781 3.44772 15.1304 3 14.5781 3C14.0258 3 13.5781 3.44772 13.5781 4C13.5781 4.55228 14.0258 5 14.5781 5Z" fill="#1565D8"/>
<path d="M0 11H47V38C47 39.6569 45.6569 41 44 41H3C1.34315 41 0 39.6569 0 38V11Z" fill="#AECAF3"/>
<rect width="2.30717" height="18.9844" rx="1.15358" transform="matrix(0.888901 0.458099 -0.425283 0.90506 26.4277 17)" fill="white"/>
<path d="M30.7071 22.7071C30.0771 22.0771 30.5233 21 31.4142 21H32.5858C32.851 21 33.1054 21.1054 33.2929 21.2929L38.2929 26.2929C38.6834 26.6834 38.6834 27.3166 38.2929 27.7071L33.2929 32.7071C33.1054 32.8946 32.851 33 32.5858 33H31.4142C30.5233 33 30.0771 31.9229 30.7071 31.2929L34.2929 27.7071C34.6834 27.3166 34.6834 26.6834 34.2929 26.2929L30.7071 22.7071Z" fill="white"/>
<path d="M15.2929 22.7071C15.9229 22.0771 15.4767 21 14.5858 21H13.4142C13.149 21 12.8946 21.1054 12.7071 21.2929L7.70711 26.2929C7.31658 26.6834 7.31658 27.3166 7.70711 27.7071L12.7071 32.7071C12.8946 32.8946 13.149 33 13.4142 33H14.5858C15.4767 33 15.9229 31.9229 15.2929 31.2929L11.7071 27.7071C11.3166 27.3166 11.3166 26.6834 11.7071 26.2929L15.2929 22.7071Z" fill="white"/>
</svg>
