<svg width="45" height="48" viewBox="0 0 45 48" fill="none" xmlns="http://www.w3.org/2000/svg">
<path d="M20.8027 35.832V39.1823C20.8027 40.107 21.522 40.8575 22.4082 40.8575C23.2944 40.8575 24.0136 40.107 24.0136 39.1823V35.832H20.8027Z" fill="#AECAF3"/>
<path d="M43.278 7.91469H1.53699C1.17095 7.91469 0.817756 7.85774 0.467773 7.80078V29.6917C0.467773 31.8459 2.14705 33.6015 4.21483 33.6015H40.6033C42.6679 33.6015 44.3504 31.8493 44.3504 29.6917V7.80078C43.9972 7.85774 43.644 7.91469 43.278 7.91469ZM35.299 14.9168L27.1242 25.286C26.4339 26.1638 25.2202 26.3615 24.3051 25.7417L19.6108 22.5622L12.6626 29.6146C12.2452 30.0367 11.7089 30.2478 11.1695 30.2478C10.6108 30.2478 10.0554 30.0233 9.63474 29.5711C8.80955 28.6866 8.82882 27.2727 9.67648 26.4117L17.8513 18.1164C18.5641 17.3894 19.6654 17.2721 20.5099 17.845L25.034 20.9072L31.9919 12.0791C32.7432 11.1276 34.095 10.9903 35.0036 11.7742C35.9187 12.5582 36.0504 13.9653 35.299 14.9168Z" fill="#1565D8"/>
<path d="M40.6138 5.46527H4.20143C1.88504 5.46527 0 4.23923 0 2.73263C0 1.22604 1.88504 0 4.20143 0H40.6138C42.9302 0 44.8152 1.22604 44.8152 2.73263C44.8152 4.23923 42.9302 5.46527 40.6138 5.46527Z" fill="#AECAF3"/>
<path d="M22.407 47.0017C20.047 47.0017 18.127 44.9982 18.127 42.5357C18.127 40.0732 20.047 38.0664 22.407 38.0664C24.767 38.0664 26.6871 40.0699 26.6871 42.5324C26.6871 44.9948 24.767 47.0017 22.407 47.0017Z" fill="#AECAF3"/>
</svg>
