<svg width="47" height="47" viewBox="0 0 47 47" fill="none" xmlns="http://www.w3.org/2000/svg">
<path d="M7.34402 10.7715C6.26305 10.7715 5.38477 9.8932 5.38477 8.81223V1.95925C5.38477 0.875348 6.26305 0 7.34402 0C8.42499 0 9.30327 0.878286 9.30327 1.95925V8.81223C9.30327 9.8932 8.42499 10.7715 7.34402 10.7715Z" fill="#AECAF3"/>
<path d="M16.6468 10.7715C15.5628 10.7715 14.6875 9.8932 14.6875 8.81223V1.95925C14.6875 0.875348 15.5628 0 16.6468 0C17.7277 0 18.606 0.878286 18.606 1.95925V8.81223C18.6031 9.8932 17.7277 10.7715 16.6468 10.7715Z" fill="#AECAF3"/>
<path d="M25.9456 10.7715C24.8646 10.7715 23.9863 9.8932 23.9863 8.81223V1.95925C23.9893 0.875348 24.8646 0 25.9456 0C27.0266 0 27.9048 0.875348 27.9048 1.95925V8.81223C27.9048 9.8932 27.0295 10.7715 25.9456 10.7715Z" fill="#AECAF3"/>
<path d="M27.9054 4.40625H5.38428C2.40868 4.40625 0 6.81493 0 9.79053V35.7367C0 38.7152 2.40868 41.1239 5.38428 41.1239H19.8363L20.2681 38.7152C20.4649 37.6196 20.9731 36.6385 21.7574 35.8366L33.2926 24.3219V9.79053C33.2897 6.81493 30.881 4.40625 27.9054 4.40625ZM15.6652 13.709C16.7432 13.709 17.6245 14.5903 17.6245 15.6683C17.6245 16.7434 16.7432 17.6246 15.6652 17.6246H7.83114C6.75605 17.6246 5.87482 16.7434 5.87482 15.6653C5.87482 14.5873 6.75605 13.7061 7.83408 13.7061L15.6652 13.709ZM21.54 25.4587H7.83114C6.75605 25.4587 5.87482 24.5775 5.87482 23.4994C5.87482 22.4214 6.75605 21.5402 7.83408 21.5402H21.543C22.6181 21.5402 23.4993 22.4214 23.4993 23.4994C23.4993 24.5775 22.6181 25.4587 21.54 25.4587Z" fill="#AECAF3"/>
<path d="M24.3126 47.0004C23.921 47.0004 23.5443 46.856 23.2625 46.5948C22.9214 46.2754 22.7671 45.817 22.8502 45.3725L23.9003 39.8051C23.9537 39.5245 24.096 39.2661 24.3126 39.0633L38.9957 25.3115C40.7993 23.6196 42.5701 24.0752 43.5401 24.9837L45.9873 27.2756C47.337 28.5397 47.337 30.5955 45.9873 31.8596L31.3041 45.6114C31.0906 45.8142 30.8147 45.9475 30.5121 45.9975L24.5707 46.981C24.4846 46.9921 24.3986 47.0004 24.3126 47.0004Z" fill="#1565D8"/>
</svg>
