<svg width="46" height="47" viewBox="0 0 46 47" fill="none" xmlns="http://www.w3.org/2000/svg">
<g clip-path="url(#clip0)">
<path d="M38.5182 0H7.37419C3.52319 0 0.390137 3.21725 0.390137 7.17175V10.2724H45.5022V7.17175C45.5022 3.21725 42.3692 0 38.5182 0ZM7.37419 6.49317C6.64729 6.49317 6.05255 5.88527 6.05255 5.13601C6.05255 4.3871 6.64729 3.77885 7.37419 3.77885C8.1011 3.77885 8.69584 4.3871 8.69584 5.13601C8.69584 5.88527 8.1011 6.49317 7.37419 6.49317ZM13.0366 6.49317C12.3097 6.49317 11.715 5.88527 11.715 5.13601C11.715 4.3871 12.3097 3.77885 13.0366 3.77885C13.7635 3.77885 14.3583 4.3871 14.3583 5.13601C14.3583 5.88527 13.7635 6.49317 13.0366 6.49317ZM18.6994 6.49317C17.9725 6.49317 17.3777 5.88527 17.3777 5.13601C17.3777 4.3871 17.9725 3.77885 18.6994 3.77885C19.4263 3.77885 20.021 4.3871 20.021 5.13601C20.021 5.88527 19.4263 6.49317 18.6994 6.49317Z" fill="url(#paint0_radial)"/>
<path d="M0.390137 39.1546C0.390137 43.1091 3.52319 46.3264 7.37419 46.3264H38.5182C42.3692 46.3264 45.5022 43.1091 45.5022 39.1546V12.9883H0.390137V39.1546ZM30.5054 21.2164C29.9891 20.6866 29.9891 19.8271 30.5054 19.2973C31.0216 18.7672 31.8583 18.7672 32.3746 19.2973L38.037 25.1119C38.5533 25.642 38.5533 26.5012 38.037 27.0314L32.3746 32.846C32.1165 33.111 31.7781 33.2436 31.4398 33.2436C31.1018 33.2436 30.7635 33.111 30.5054 32.846C29.9894 32.3162 29.9894 31.4566 30.5054 30.9269L35.2333 26.0718L30.5054 21.2164ZM18.9327 31.2792L24.5955 19.6497C24.9218 18.9796 25.7158 18.7078 26.3683 19.0428C27.0212 19.3779 27.2859 20.1933 26.9596 20.8637L21.2969 32.4932C21.0656 32.9686 20.5985 33.2436 20.1139 33.2436C19.9153 33.2436 19.7137 33.1976 19.524 33.1001C18.8711 32.765 18.6064 31.9497 18.9327 31.2792ZM7.85535 25.1119L13.5178 19.297C14.034 18.7672 14.8707 18.7672 15.387 19.297C15.9029 19.8271 15.9029 20.6863 15.387 21.2164L10.659 26.0715L15.3867 30.9265C15.9029 31.4563 15.9029 32.3158 15.3867 32.846C15.1289 33.1107 14.7905 33.2432 14.4522 33.2432C14.1142 33.2432 13.7759 33.1107 13.5178 32.846L7.85535 27.031C7.33909 26.5012 7.33909 25.642 7.85535 25.1119Z" fill="url(#paint1_radial)"/>
</g>
<defs>
<radialGradient id="paint0_radial" cx="0" cy="0" r="1" gradientUnits="userSpaceOnUse" gradientTransform="translate(22.9462 5.13619) rotate(90) scale(5.13619 22.556)">
<stop stop-color="#B4B4B4"/>
<stop offset="1" stop-color="#7E7E7E"/>
</radialGradient>
<radialGradient id="paint1_radial" cx="0" cy="0" r="1" gradientUnits="userSpaceOnUse" gradientTransform="translate(22.9462 29.6573) rotate(90) scale(16.6691 22.556)">
<stop stop-color="#B4B4B4"/>
<stop offset="1" stop-color="#7E7E7E"/>
</radialGradient>
<clipPath id="clip0">
<rect x="0.390137" width="45.1121" height="46.3245" fill="white"/>
</clipPath>
</defs>
</svg>
