<svg width="46" height="47" viewBox="0 0 46 47" fill="none" xmlns="http://www.w3.org/2000/svg">
<g clip-path="url(#clip0)">
<path d="M6.69784 21.7146C7.7641 21.7146 8.72918 21.2753 9.44231 20.5698L13.3546 22.5784C13.335 22.742 13.3061 22.9028 13.3061 23.0717C13.3061 25.3167 15.0848 27.1432 17.271 27.1432C19.4572 27.1432 21.2359 25.3167 21.2359 23.0717C21.2359 22.4451 21.0858 21.8584 20.8384 21.3276L26.1456 15.8777C26.6626 16.1318 27.2339 16.2859 27.8441 16.2859C30.0303 16.2859 31.809 14.4594 31.809 12.2145C31.809 11.7918 31.7282 11.392 31.6111 11.0086L36.2224 7.45803C36.8516 7.88956 37.6057 8.14297 38.4173 8.14297C40.6035 8.14297 42.3822 6.31646 42.3822 4.07149C42.3822 1.82651 40.6035 0 38.4173 0C36.231 0 34.4523 1.82651 34.4523 4.07149C34.4523 4.49418 34.5332 4.89391 34.6502 5.27738L30.0389 8.82791C29.4098 8.39638 28.6557 8.14297 27.8441 8.14297C25.6579 8.14297 23.8792 9.96948 23.8792 12.2145C23.8792 12.8411 24.0293 13.4278 24.2767 13.9586L18.9695 19.4085C18.4525 19.1544 17.8812 19.0003 17.271 19.0003C16.2047 19.0003 15.2396 19.4396 14.5265 20.145L10.6142 18.1365C10.6339 17.9728 10.6628 17.812 10.6628 17.6431C10.6628 15.3981 8.88406 13.5716 6.69784 13.5716C4.51162 13.5716 2.73291 15.3981 2.73291 17.6431C2.73291 19.8881 4.51162 21.7146 6.69784 21.7146Z" fill="url(#paint0_radial)"/>
<path d="M43.7904 43.6088H42.3807V14.9275C42.3807 14.1775 41.7894 13.5703 41.059 13.5703H35.7725C35.0421 13.5703 34.4508 14.1775 34.4508 14.9275V43.6088H31.8075V23.0704C31.8075 22.3205 31.2162 21.7133 30.4859 21.7133H25.1993C24.469 21.7133 23.8777 22.3205 23.8777 23.0704V43.6088H21.2344V33.9277C21.2344 33.1778 20.6431 32.5706 19.9128 32.5706H14.6262C13.8958 32.5706 13.3045 33.1778 13.3045 33.9277V43.6088H10.6613V28.4991C10.6613 27.7491 10.07 27.1419 9.33961 27.1419H4.05304C3.32269 27.1419 2.7314 27.7491 2.7314 28.4991V43.6088H1.32164C0.591298 43.6088 0 44.216 0 44.966C0 45.716 0.591298 46.3232 1.32164 46.3232H43.7904C44.5208 46.3232 45.1121 45.716 45.1121 44.966C45.1121 44.216 44.5208 43.6088 43.7904 43.6088Z" fill="url(#paint1_radial)"/>
</g>
<defs>
<radialGradient id="paint0_radial" cx="0" cy="0" r="1" gradientUnits="userSpaceOnUse" gradientTransform="translate(22.5576 13.5716) rotate(90) scale(13.5716 19.8246)">
<stop stop-color="#B5ADEB"/>
<stop offset="1" stop-color="#978DDD"/>
</radialGradient>
<radialGradient id="paint1_radial" cx="0" cy="0" r="1" gradientUnits="userSpaceOnUse" gradientTransform="translate(22.556 29.9467) rotate(90) scale(16.3764 22.556)">
<stop stop-color="#B5ADEB"/>
<stop offset="1" stop-color="#978DDD"/>
</radialGradient>
<clipPath id="clip0">
<rect width="45.1121" height="46.3245" fill="white"/>
</clipPath>
</defs>
</svg>
