<svg width="30" height="30" viewBox="0 0 30 30" fill="none" xmlns="http://www.w3.org/2000/svg">
<path d="M29.1178 13.462H28.616L25.0228 7.94786H25.0987C25.8783 7.94786 26.5104 7.31563 26.5104 6.53605C26.5104 5.75633 25.8783 5.1243 25.0987 5.1243H16.4117V4.8843C16.4117 4.10451 15.7796 3.47249 15 3.47249C14.2203 3.47249 13.5882 4.10458 13.5882 4.8843V5.1243H4.9013C4.12165 5.1243 3.48949 5.7564 3.48949 6.53605C3.48949 7.3157 4.12158 7.94786 4.9013 7.94786H4.97714L1.38412 13.462H0.882209C0.395023 13.462 0 13.857 0 14.3442C0 17.4937 2.56242 20.0562 5.712 20.0562C8.86158 20.0562 11.424 17.4937 11.424 14.3442C11.424 13.8571 11.029 13.462 10.5418 13.462H10.0398L6.44672 7.94786H13.5882V23.4071H10.3748C9.51307 23.4071 8.81449 24.1056 8.81449 24.9673C8.81449 25.829 9.51307 26.5276 10.3748 26.5276H19.6252C20.4869 26.5276 21.1854 25.829 21.1854 24.9673C21.1854 24.1055 20.4869 23.4071 19.6252 23.4071H16.4117V7.94786H23.5531L19.9601 13.462H19.4583C18.971 13.462 18.576 13.857 18.576 14.3442C18.576 17.4937 21.1383 20.0562 24.2879 20.0562C27.4375 20.0562 29.9999 17.4937 29.9999 14.3442C30 13.857 29.605 13.462 29.1178 13.462ZM8.02507 13.462H3.39886L5.71193 9.91202L8.02507 13.462ZM21.975 13.462L24.288 9.91202L26.6011 13.462H21.975Z" fill="white"/>
</svg>
