<svg xmlns="http://www.w3.org/2000/svg" width="24" height="24" viewBox="0 0 24 24"><g><g><g/><g><path fill="#707683" d="M19 5a2 2 0 0 1 2 2v1a2 2 0 0 1 2 2l-.024.217-1.98 8.91A2 2 0 0 1 19 21H3a2 2 0 0 1-2-2V5a2 2 0 0 1 2-2h6c1.12 0 1.833.475 2.549 1.379l.122.156a25.92 25.92 0 0 0 .27.342c.088.107.1.123.06.123zm-7.005 2c-.718-.004-1.186-.34-1.69-.963l-.236-.303a23.766 23.766 0 0 0-.087-.113C9.607 5.15 9.384 5 9 5H3v4.891l.03-.13C3.31 8.62 3.832 8 5 8h14V7zm7.029 11.783L20.976 10H5.036c-.015.05-.036.121-.06.217L3.024 19H19z"/></g></g></g></svg>