<svg width="30" height="30" viewBox="0 0 30 30" fill="none" xmlns="http://www.w3.org/2000/svg">
<rect x="1" y="22.2105" width="20.5714" height="3.78947" rx="1.89474" fill="#BFC5D1"/>
<rect x="4.42859" y="17.1579" width="20.5714" height="3.78947" rx="1.89474" fill="#BFC5D1"/>
<rect x="4.42859" y="12.1053" width="20.5714" height="3.78947" rx="1.89474" fill="#BFC5D1"/>
<rect x="1" y="7.05261" width="20.5714" height="3.78947" rx="1.89474" fill="#BFC5D1"/>
<rect x="4.42859" y="2" width="20.5714" height="3.78947" rx="1.89474" fill="#BFC5D1"/>
<circle cx="22.5" cy="22.5" r="6.5" fill="white" stroke="#FAFBFC" stroke-width="2"/>
<path d="M23.9344 24.7175C24.0439 24.5245 24.0986 24.3 24.0986 24.0458C24.0986 23.6421 23.9501 23.3359 23.6533 23.1263C23.4825 23.0038 23.1958 22.8879 22.7932 22.7783V25.3214C23.3443 25.2966 23.7238 25.0952 23.9344 24.7175Z" fill="#BFC5D1"/>
<path d="M22.3332 19.5096C21.9073 19.5263 21.6039 19.6544 21.4238 19.8965C21.2428 20.1386 21.153 20.391 21.153 20.6555C21.153 20.9747 21.2596 21.2243 21.4722 21.4051C21.6855 21.5852 21.9732 21.7113 22.3332 21.7819V19.5096Z" fill="#BFC5D1"/>
<path d="M22.5586 28.1171C25.6287 28.1171 28.1163 25.6287 28.1163 22.5585C28.1163 19.4882 25.6287 17 22.5586 17C19.4885 17 17 19.4884 17 22.5586C17 25.6287 19.4884 28.1171 22.5586 28.1171ZM20.7836 21.9999C20.4496 21.691 20.2826 21.2613 20.2826 20.714C20.2826 20.224 20.4618 19.7824 20.8217 19.389C21.1817 18.9965 21.6846 18.7961 22.3331 18.7896V18.1468H22.7925V18.7804C23.4336 18.8258 23.9263 19.0143 24.2695 19.3473C24.6128 19.6804 24.7918 20.1202 24.8095 20.6667H23.9624C23.9411 20.4218 23.8743 20.2102 23.7648 20.0331C23.5616 19.7075 23.2378 19.5367 22.7934 19.5199V21.8757C23.5412 22.0854 24.0487 22.282 24.3169 22.4649C24.752 22.7682 24.9692 23.2164 24.9692 23.8093C24.9692 24.6674 24.69 25.2762 24.1333 25.6371C23.8243 25.8366 23.3781 25.9683 22.7945 26.0342V26.9723H22.3352V26.0342C21.3971 25.973 20.7606 25.6408 20.4248 25.0378C20.2411 24.7122 20.1492 24.2723 20.1492 23.7184H21.0046C21.0306 24.1601 21.1002 24.4821 21.2134 24.6852C21.4148 25.0498 21.7886 25.254 22.3342 25.2994V22.6644C21.6336 22.5298 21.1167 22.3098 20.7836 21.9999Z" fill="#BFC5D1"/>
</svg>
