<svg width="30" height="30" viewBox="0 0 30 30" fill="none" xmlns="http://www.w3.org/2000/svg">
<path d="M4.73684 20.8956C4.73684 21.1644 4.62869 21.4218 4.43677 21.6099L1.69993 24.292C1.0671 24.9121 0 24.4638 0 23.5778V13.6316C0 13.0793 0.447715 12.6316 1 12.6316H3.73684C4.28913 12.6316 4.73684 13.0793 4.73684 13.6316V20.8956ZM12.6316 16.2423C12.6316 17.0957 11.6315 17.5569 10.9824 17.0029L10.8068 16.8531C10.4336 16.5345 9.88121 16.5453 9.52069 16.8781C8.90009 17.4509 7.89474 17.0107 7.89474 16.1662V7.31579C7.89474 6.7635 8.34245 6.31579 8.89474 6.31579H11.6316C12.1839 6.31579 12.6316 6.7635 12.6316 7.31579V16.2423ZM20.5263 15.3753C20.5263 15.6405 20.421 15.8948 20.2334 16.0824L17.4966 18.8192C16.8666 19.4492 15.7895 19.003 15.7895 18.1121V1C15.7895 0.447716 16.2372 0 16.7895 0H19.5263C20.0786 0 20.5263 0.447715 20.5263 1V15.3753ZM24.9632 15.4895L23.8124 14.3387C23.1824 13.7087 23.6286 12.6316 24.5195 12.6316H29C29.5523 12.6316 30 13.0793 30 13.6316V18.1121C30 19.003 28.9229 19.4492 28.2929 18.8192L27.8778 18.4042C27.4885 18.0148 26.8576 18.0135 26.4666 18.4012L16.4492 28.3352C16.0773 28.7041 15.4837 28.7234 15.0886 28.3795L11.0031 24.8238C10.6114 24.4829 10.024 24.4985 9.65095 24.8597L4.63292 29.7184C4.44639 29.899 4.19694 30 3.93731 30H2.44929C1.55349 30 1.10957 28.9127 1.7494 28.2858L9.566 20.6262C9.93438 20.2652 10.5169 20.2436 10.911 20.5763L15.7895 24.6947" fill="white"/>
</svg>
