<svg width="30" height="24" viewBox="0 0 30 24" fill="none" xmlns="http://www.w3.org/2000/svg">
<path d="M18.9198 11.8077L26.2569 5.22789C26.5983 4.91753 26.6293 4.38991 26.319 4.0423C26.0086 3.70089 25.481 3.66986 25.1334 3.98022L15.0154 13.0615L13.0415 11.2987C13.0353 11.2925 13.0291 11.2862 13.0291 11.28C12.9856 11.2366 12.9422 11.1993 12.8925 11.1621L4.86024 3.97401C4.51263 3.66365 3.985 3.69469 3.67464 4.0423C3.36427 4.38991 3.39531 4.91753 3.74292 5.22789L11.1669 11.8635L3.77395 18.7847C3.43876 19.1013 3.42014 19.6289 3.73671 19.9703C3.90431 20.1441 4.12777 20.2372 4.35124 20.2372C4.55608 20.2372 4.76092 20.1627 4.92231 20.0137L12.427 12.9933L14.463 14.812C14.6244 14.9548 14.823 15.0231 15.0216 15.0231C15.2203 15.0231 15.4251 14.9486 15.5803 14.8058L17.6722 12.9312L25.1334 20.02C25.2948 20.1751 25.5058 20.2496 25.7106 20.2496C25.9341 20.2496 26.1514 20.1627 26.319 19.9889C26.6355 19.6537 26.6231 19.1199 26.2879 18.8033L18.9198 11.8077Z" fill="white"/>
</svg>
