<svg width="30" height="30" viewBox="0 0 30 30" fill="none" xmlns="http://www.w3.org/2000/svg">
<path d="M28.0375 6.16743L17.1437 1.20213C15.9625 0.662583 14.0302 0.662583 12.849 1.20213L1.9625 6.16743C0.679167 6.75073 0.679167 7.70587 1.9625 8.28917L12.7542 13.2107C13.9865 13.7721 16.0135 13.7721 17.2458 13.2107L28.0375 8.28917C29.3208 7.70587 29.3208 6.75073 28.0375 6.16743ZM12.7542 23.115L5.47708 19.7975C5.17083 19.6589 4.81354 19.6589 4.50729 19.7975L1.9625 20.9568C0.679167 21.5401 0.679167 22.4952 1.9625 23.0785L12.7542 28.0001C13.9865 28.5615 16.0135 28.5615 17.2458 28.0001L28.0375 23.0785C29.3208 22.4952 29.3208 21.5401 28.0375 20.9568L25.4927 19.7975C25.1865 19.6589 24.8292 19.6589 24.5229 19.7975L17.2458 23.115C16.0135 23.6764 13.9865 23.6764 12.7542 23.115Z" fill="white"/>
<path d="M28.5005 13.9999L26.4998 12.5003C26.1936 12.3556 25.306 12.3552 24.9998 12.4998L16.8922 15.8319C15.7768 16.2278 14.224 16.2278 13.1087 15.8319L5.49968 12.5C5.1935 12.3553 4.30586 12.3553 3.99968 12.5L2.00128 13.4999C0.718242 14.109 0.998073 14.9999 1.49968 15.5L12.7514 20.5603C13.9835 21.1466 16.0101 21.1466 17.2421 20.5603L28.0005 15.9999C29.0005 15.4999 29.5005 14.9999 28.5005 13.9999Z" fill="white"/>
</svg>
