<svg width="30" height="30" viewBox="0 0 30 30" fill="none" xmlns="http://www.w3.org/2000/svg">
<path d="M2.5 8L15 1L28.8696 8L22.5 11.5L28.8696 15L22.5 18.487L28.8696 22C24.0235 24.4496 19.8461 26.5504 15 29L2.5 22L9.5 19L2 15L8.5 11.5L2.5 8Z" fill="#BFC5D1"/>
<path d="M22.299 11.5431L24.088 10.6486L28.9061 8.2396L28.9062 8.23954C28.946 8.21966 28.965 8.19759 28.9766 8.17791C28.9902 8.15472 29 8.12283 29 8.08584C29 8.04887 28.9903 8.01705 28.9766 7.99392C28.9651 7.97432 28.9461 7.95214 28.906 7.93208L15.0775 1.01828C15.0287 0.993905 14.9713 0.993905 14.9225 1.01828L1.09398 7.93208C1.09395 7.9321 1.09392 7.93212 1.09388 7.93213C1.05411 7.95204 1.0351 7.97415 1.02348 7.99388C1.00979 8.01714 1.00001 8.04906 1 8.08605C0.99999 8.12303 1.00974 8.15481 1.02332 8.17788C1.03482 8.1974 1.05375 8.21953 1.09379 8.23954L1.0939 8.2396L5.91198 10.6486L7.70097 11.5431L5.91195 12.4375L1.09398 14.8462C1.09394 14.8462 1.0939 14.8462 1.09387 14.8462C1.05407 14.8662 1.03506 14.8883 1.02346 14.908C1.00978 14.9312 1.00001 14.9631 1 15.0001C0.99999 15.037 1.00973 15.0688 1.02333 15.0919C1.03485 15.1115 1.05382 15.1336 1.0939 15.1537C1.09393 15.1537 1.09395 15.1537 1.09398 15.1537L5.91198 17.5627L7.70097 18.4572L5.91195 19.3516L1.09398 21.7603C1.0541 21.7802 1.03508 21.8024 1.02346 21.8221C1.00978 21.8453 1.00001 21.8772 1 21.9142C0.99999 21.9511 1.00973 21.9829 1.02333 22.006C1.03484 22.0255 1.05381 22.0477 1.09388 22.0678C1.09392 22.0678 1.09395 22.0678 1.09398 22.0678L14.9228 28.9818L22.299 11.5431ZM22.299 11.5431L24.088 12.4375M22.299 11.5431L24.088 12.4375M24.088 12.4375L28.906 14.8462C28.9461 14.8662 28.9651 14.8884 28.9766 14.908C28.9903 14.9311 29 14.963 29 14.9999C29 15.0369 28.9902 15.0688 28.9766 15.092C28.965 15.1117 28.946 15.1338 28.9062 15.1536L28.9061 15.1537L24.088 17.5627L22.299 18.4572M24.088 12.4375L22.299 18.4572M22.299 18.4572L24.088 19.3516M22.299 18.4572L24.088 19.3516M24.088 19.3516L28.906 21.7603C28.9462 21.7803 28.9651 21.8025 28.9767 21.8221C28.9903 21.8452 29 21.877 29 21.9139C29 21.9509 28.9902 21.9828 28.9765 22.006C28.9649 22.0257 28.9459 22.0479 28.9061 22.0678C28.9061 22.0678 28.9061 22.0678 28.906 22.0678L15.0772 28.9818M24.088 19.3516L15.0772 28.9818M28.4446 21.9142L26.6557 22.8086L15.4472 28.4124L15 28.6359L14.5528 28.4124L3.34435 22.8086L1.55537 21.9142L3.34432 21.0197L7.63823 18.8728L8.08542 18.6492L8.53263 18.8728L14.9225 22.0675L28.4446 21.9142ZM28.4446 21.9142L26.6557 21.0197M28.4446 21.9142L26.6557 21.0197M26.6557 21.0197L22.3618 18.8728L21.9146 18.6492M26.6557 21.0197L21.9146 18.6492M21.9146 18.6492L21.4674 18.8728M21.9146 18.6492L21.4674 18.8728M21.4674 18.8728L15.0772 22.0677M21.4674 18.8728L15.0772 22.0677M15 21.7218L14.5528 21.4983L3.34435 15.8945L1.55537 15.0001L3.34432 14.1056L7.63823 11.9587L8.08542 11.7351L8.53263 11.9587L14.9225 15.1534C14.9226 15.1535 14.9227 15.1535 14.9228 15.1536C14.9717 15.1779 15.0285 15.1778 15.077 15.1537L15 21.7218ZM15 21.7218L15.4472 21.4983L26.6557 15.8945L28.4446 15.0001L26.6557 14.1056L22.3618 11.9587L21.9146 11.7351L21.4674 11.9587L15.0772 15.1536L15 21.7218ZM15.0772 28.9818L15.077 28.9819C15.0284 29.0061 14.9715 29.006 14.923 28.9819L15.0772 28.9818ZM15.0772 22.0677L15.077 22.0678C15.0286 22.0919 14.9719 22.092 14.923 22.0678L15.0772 22.0677ZM15.4472 1.58757L15 1.36398L14.5528 1.58757L3.34433 7.19154L1.55534 8.08599L3.34435 8.98042L14.5528 14.5842L15 14.8077L15.4472 14.5842L26.6557 8.98042L28.4447 8.08599L26.6557 7.19154L15.4472 1.58757Z" fill="#BFC5D1" stroke="#FAFBFC" stroke-width="2"/>
</svg>
