<svg width="30" height="30" viewBox="0 0 30 30" fill="none" xmlns="http://www.w3.org/2000/svg">
<path fill-rule="evenodd" clip-rule="evenodd" d="M2 0C0.895431 0 0 0.89543 0 2V28C0 29.1046 0.89543 30 2 30H28C29.1046 30 30 29.1046 30 28V2C30 0.895431 29.1046 0 28 0H2ZM19.3617 8.70565C19.3623 8.15336 18.9151 7.70516 18.3628 7.70455L7.92094 7.69312C7.36865 7.69251 6.92045 8.13974 6.91985 8.69202L6.9193 9.2037C6.9187 9.75599 7.36593 10.2042 7.91821 10.2048L18.3601 10.2162C18.9124 10.2168 19.3606 9.76961 19.3612 9.21733L19.3617 8.70565ZM23.0873 14.9892C23.0879 14.4369 22.6407 13.9887 22.0884 13.9881L7.91397 13.9725C7.36168 13.9719 6.91348 14.4192 6.91288 14.9714L6.91233 15.4831C6.91173 16.0354 7.35896 16.4836 7.91124 16.4842L22.0857 16.4997C22.6379 16.5003 23.0861 16.0531 23.0867 15.5008L23.0873 14.9892ZM14.6165 20.2589C15.1687 20.2595 15.616 20.7077 15.6154 21.26L15.6148 21.7717C15.6142 22.324 15.166 22.7712 14.6137 22.7706L7.90443 22.7633C7.35215 22.7627 6.90492 22.3145 6.90552 21.7622L6.90607 21.2505C6.90667 20.6982 7.35487 20.251 7.90716 20.2516L14.6165 20.2589Z" fill="#BFC5D1"/>
</svg>
