<svg width="30" height="30" viewBox="0 0 30 30" fill="none" xmlns="http://www.w3.org/2000/svg">
<path fill-rule="evenodd" clip-rule="evenodd" d="M29.9061 13.3344C29.8587 12.9127 29.367 12.5958 28.9418 12.5958C27.5672 12.5958 26.3473 11.7887 25.8357 10.5404C25.3131 9.2619 25.6501 7.77086 26.6746 6.83112C26.9971 6.53632 27.0363 6.04284 26.7658 5.70005C26.0622 4.80663 25.2625 3.99961 24.3894 3.30019C24.0475 3.02582 23.5459 3.064 23.2494 3.39227C22.3553 4.38247 20.7492 4.75049 19.5082 4.23267C18.2167 3.68941 17.4023 2.38076 17.482 0.975999C17.5082 0.534758 17.1857 0.151114 16.7458 0.0998795C15.6253 -0.0297133 14.495 -0.0337317 13.3712 0.0909498C12.9363 0.138947 12.6138 0.51355 12.6284 0.949209C12.6773 2.34013 11.8531 3.6259 10.5744 4.14963C9.34824 4.65048 7.75346 4.28558 6.86114 3.3042C6.56622 2.98095 6.07273 2.94121 5.72915 3.20899C4.83013 3.91433 4.01248 4.72202 3.30243 5.60808C3.02549 5.95254 3.06624 6.45183 3.39196 6.74818C4.43598 7.69362 4.77309 9.19761 4.2307 10.4909C3.71288 11.7238 2.43254 12.5185 0.966803 12.5185C0.491171 12.5032 0.152391 12.8224 0.100374 13.2548C-0.0315664 14.3818 -0.0331291 15.53 0.0938996 16.6661C0.141005 17.0896 0.647669 17.4037 1.07753 17.4037C2.38376 17.3703 3.63787 18.179 4.16395 19.4592C4.68836 20.7377 4.35126 22.2279 3.32521 23.1684C3.00429 23.4632 2.96354 23.9559 3.23401 24.2987C3.93099 25.1864 4.73078 25.9942 5.60703 26.6995C5.95073 26.9764 6.4508 26.9373 6.74873 26.609C7.64619 25.6164 9.25213 25.249 10.4883 25.7679C11.783 26.3094 12.5974 27.618 12.5177 29.0235C12.4917 29.465 12.8157 29.8493 13.2539 29.8998C13.8271 29.9666 14.4037 30 14.9819 30C15.5308 30 16.0798 29.9699 16.6286 29.9088C17.0636 29.8608 17.3859 29.4862 17.3713 29.0498C17.3209 27.6596 18.1466 26.3739 19.4236 25.851C20.658 25.3468 22.2461 25.7158 23.1386 26.6962C23.4351 27.0188 23.9252 27.0578 24.2707 26.7909C25.168 26.0872 25.984 25.2802 26.6974 24.3917C26.9742 24.048 26.9351 23.5479 26.6077 23.2517C25.5637 22.3062 25.2249 20.802 25.7673 19.5097C26.2772 18.2931 27.51 17.4763 28.836 17.4763L29.0215 17.4811C29.4516 17.516 29.8473 17.1847 29.8994 16.7457C30.0316 15.6178 30.0332 14.4705 29.9061 13.3344ZM15.0238 20.0351C12.2647 20.0351 10.0203 17.7908 10.0203 15.0317C10.0203 12.2728 12.2647 10.0284 15.0238 10.0284C17.7828 10.0284 20.0271 12.2728 20.0271 15.0317C20.0271 17.7908 17.7828 20.0351 15.0238 20.0351Z" fill="#BFC5D1"/>
</svg>
