<svg width="200" height="200" viewBox="0 0 200 200" fill="none" xmlns="http://www.w3.org/2000/svg">
<mask id="path-1-inside-1" fill="white">
<path d="M45.5396 56.4056C44.6833 55.7079 43.421 55.8348 42.7478 56.7105C35.1602 66.5808 30.314 78.2953 28.7198 90.6665C27.1255 103.038 28.8434 115.598 33.6807 127.069C34.1099 128.087 35.2988 128.53 36.304 128.072L37.4783 127.537C38.4835 127.079 38.9241 125.894 38.4973 124.876C34.0673 114.302 32.4985 102.736 33.9668 91.3426C35.435 79.9495 39.885 69.1585 46.8508 60.0538C47.522 59.1766 47.3962 57.9185 46.5399 57.2208L45.5396 56.4056Z"/>
</mask>
<path d="M45.5396 56.4056C44.6833 55.7079 43.421 55.8348 42.7478 56.7105C35.1602 66.5808 30.314 78.2953 28.7198 90.6665C27.1255 103.038 28.8434 115.598 33.6807 127.069C34.1099 128.087 35.2988 128.53 36.304 128.072L37.4783 127.537C38.4835 127.079 38.9241 125.894 38.4973 124.876C34.0673 114.302 32.4985 102.736 33.9668 91.3426C35.435 79.9495 39.885 69.1585 46.8508 60.0538C47.522 59.1766 47.3962 57.9185 46.5399 57.2208L45.5396 56.4056Z" stroke="#D9DFFE" stroke-width="10" mask="url(#path-1-inside-1)"/>
<mask id="path-2-inside-2" fill="white">
<path d="M132.772 39.0907C133.312 38.1267 132.968 36.9053 131.99 36.3934C118.825 29.5092 103.803 26.9521 89.0711 29.1171C74.339 31.2821 60.6883 38.053 50.0607 48.4338C49.2705 49.2056 49.2933 50.4742 50.0872 51.2421L51.0147 52.1393C51.8086 52.9072 53.0728 52.8836 53.8647 52.1136C63.6794 42.571 76.2633 36.3465 89.8403 34.3512C103.417 32.356 117.26 34.6968 129.405 41.0121C130.385 41.5217 131.603 41.1806 132.142 40.2167L132.772 39.0907Z"/>
</mask>
<path d="M132.772 39.0907C133.312 38.1267 132.968 36.9053 131.99 36.3934C118.825 29.5092 103.803 26.9521 89.0711 29.1171C74.339 31.2821 60.6883 38.053 50.0607 48.4338C49.2705 49.2056 49.2933 50.4742 50.0872 51.2421L51.0147 52.1393C51.8086 52.9072 53.0728 52.8836 53.8647 52.1136C63.6794 42.571 76.2633 36.3465 89.8403 34.3512C103.417 32.356 117.26 34.6968 129.405 41.0121C130.385 41.5217 131.603 41.1806 132.142 40.2167L132.772 39.0907Z" stroke="#4384F0" stroke-width="10" mask="url(#path-2-inside-2)"/>
<mask id="path-3-inside-3" fill="white">
<path d="M40.5779 134.298C39.6246 134.856 39.3018 136.083 39.8866 137.02C46.4779 147.582 55.7561 156.221 66.7873 162.043C77.8185 167.865 90.186 170.651 102.625 170.134C103.729 170.088 104.559 169.129 104.482 168.027L104.392 166.74C104.315 165.638 103.359 164.811 102.255 164.854C90.8002 165.304 79.4158 162.726 69.2567 157.364C59.0976 152.002 50.5459 144.058 44.4542 134.346C43.8673 133.411 42.6448 133.088 41.6915 133.646L40.5779 134.298Z"/>
</mask>
<path d="M40.5779 134.298C39.6246 134.856 39.3018 136.083 39.8866 137.02C46.4779 147.582 55.7561 156.221 66.7873 162.043C77.8185 167.865 90.186 170.651 102.625 170.134C103.729 170.088 104.559 169.129 104.482 168.027L104.392 166.74C104.315 165.638 103.359 164.811 102.255 164.854C90.8002 165.304 79.4158 162.726 69.2567 157.364C59.0976 152.002 50.5459 144.058 44.4542 134.346C43.8673 133.411 42.6448 133.088 41.6915 133.646L40.5779 134.298Z" stroke="#4384F0" stroke-width="10" mask="url(#path-3-inside-3)"/>
<mask id="path-4-inside-4" fill="white">
<path d="M112.004 167.081C112.202 168.167 113.245 168.89 114.325 168.661C126.504 166.077 137.794 160.312 147.037 151.936C156.28 143.559 163.126 132.889 166.892 121.023C167.226 119.97 166.609 118.862 165.547 118.558L164.307 118.202C163.245 117.898 162.14 118.514 161.804 119.566C158.311 130.484 151.996 140.301 143.484 148.015C134.972 155.729 124.583 161.05 113.374 163.454C112.294 163.686 111.573 164.725 111.772 165.811L112.004 167.081Z"/>
</mask>
<path d="M112.004 167.081C112.202 168.167 113.245 168.89 114.325 168.661C126.504 166.077 137.794 160.312 147.037 151.936C156.28 143.559 163.126 132.889 166.892 121.023C167.226 119.97 166.609 118.862 165.547 118.558L164.307 118.202C163.245 117.898 162.14 118.514 161.804 119.566C158.311 130.484 151.996 140.301 143.484 148.015C134.972 155.729 124.583 161.05 113.374 163.454C112.294 163.686 111.573 164.725 111.772 165.811L112.004 167.081Z" stroke="#4384F0" stroke-width="10" mask="url(#path-4-inside-4)"/>
<mask id="path-5-inside-5" fill="white">
<path d="M167.449 109.774C168.542 109.936 169.562 109.183 169.694 108.086C171.175 95.7246 169.358 83.1782 164.41 71.7281C159.462 60.2781 151.57 50.3571 141.552 42.9656C140.663 42.3098 139.415 42.5363 138.785 43.4434L138.048 44.503C137.418 45.4101 137.644 46.6539 138.532 47.3118C147.741 54.1392 154.997 63.282 159.554 73.8268C164.111 84.3716 165.797 95.9217 164.459 107.307C164.33 108.404 165.08 109.421 166.173 109.584L167.449 109.774Z"/>
</mask>
<path d="M167.449 109.774C168.542 109.936 169.562 109.183 169.694 108.086C171.175 95.7246 169.358 83.1782 164.41 71.7281C159.462 60.2781 151.57 50.3571 141.552 42.9656C140.663 42.3098 139.415 42.5363 138.785 43.4434L138.048 44.503C137.418 45.4101 137.644 46.6539 138.532 47.3118C147.741 54.1392 154.997 63.282 159.554 73.8268C164.111 84.3716 165.797 95.9217 164.459 107.307C164.33 108.404 165.08 109.421 166.173 109.584L167.449 109.774Z" stroke="#4384F0" stroke-width="10" mask="url(#path-5-inside-5)"/>
</svg>
