<svg width="175" height="175" viewBox="0 0 175 175" fill="none" xmlns="http://www.w3.org/2000/svg">
<mask id="path-1-inside-1" fill="white">
<path d="M30.6391 49.2294C29.723 48.6123 28.4774 48.8533 27.8865 49.7865C21.2266 60.3051 17.4643 72.4113 17 84.8761C16.5358 97.3409 19.3872 109.693 25.2462 120.678C25.766 121.653 26.9902 121.986 27.9497 121.439L29.0705 120.799C30.03 120.252 30.3612 119.032 29.8436 118.056C24.4719 107.929 21.8592 96.5523 22.2867 85.073C22.7143 73.5936 26.1659 62.4431 32.2762 52.7435C32.8649 51.8089 32.6254 50.5674 31.7093 49.9503L30.6391 49.2294Z"/>
</mask>
<path d="M30.6391 49.2294C29.723 48.6123 28.4774 48.8533 27.8865 49.7865C21.2266 60.3051 17.4643 72.4113 17 84.8761C16.5358 97.3409 19.3872 109.693 25.2462 120.678C25.766 121.653 26.9902 121.986 27.9497 121.439L29.0705 120.799C30.03 120.252 30.3612 119.032 29.8436 118.056C24.4719 107.929 21.8592 96.5523 22.2867 85.073C22.7143 73.5936 26.1659 62.4431 32.2762 52.7435C32.8649 51.8089 32.6254 50.5674 31.7093 49.9503L30.6391 49.2294Z" stroke="#D9DFFE" stroke-width="10" mask="url(#path-1-inside-1)"/>
<mask id="path-2-inside-2" fill="white">
<path d="M139.959 42.3283C140.796 41.6076 140.892 40.3427 140.148 39.5262C133.798 32.5578 126.123 26.9142 117.565 22.9292C108.402 18.6627 98.435 16.3954 88.3278 16.2779C78.2206 16.1604 68.2041 18.1955 58.9441 22.2479C50.2953 26.0328 42.4914 31.4966 35.9814 38.3155C35.2186 39.1144 35.2855 40.3812 36.1056 41.1212L37.1041 42.0223C37.9241 42.7623 39.1866 42.6951 39.9511 41.8979C45.9517 35.6412 53.133 30.6253 61.0869 27.1445C69.6521 23.3962 78.9169 21.5138 88.2657 21.6225C97.6145 21.7311 106.833 23.8283 115.309 27.7747C123.18 31.4394 130.242 36.6209 136.096 43.0154C136.842 43.8301 138.102 43.9267 138.939 43.2059L139.959 42.3283Z"/>
</mask>
<path d="M139.959 42.3283C140.796 41.6076 140.892 40.3427 140.148 39.5262C133.798 32.5578 126.123 26.9142 117.565 22.9292C108.402 18.6627 98.435 16.3954 88.3278 16.2779C78.2206 16.1604 68.2041 18.1955 58.9441 22.2479C50.2953 26.0328 42.4914 31.4966 35.9814 38.3155C35.2186 39.1144 35.2855 40.3812 36.1056 41.1212L37.1041 42.0223C37.9241 42.7623 39.1866 42.6951 39.9511 41.8979C45.9517 35.6412 53.133 30.6253 61.0869 27.1445C69.6521 23.3962 78.9169 21.5138 88.2657 21.6225C97.6145 21.7311 106.833 23.8283 115.309 27.7747C123.18 31.4394 130.242 36.6209 136.096 43.0154C136.842 43.8301 138.102 43.9267 138.939 43.2059L139.959 42.3283Z" stroke="#D9DFFE" stroke-width="10" mask="url(#path-2-inside-2)"/>
<mask id="path-3-inside-3" fill="white">
<path d="M147.34 122.044C148.291 122.606 149.52 122.292 150.055 121.325C156.149 110.314 159.223 97.8727 158.946 85.2667C158.668 72.6608 155.05 60.3668 148.477 49.6344C147.9 48.6924 146.658 48.4325 145.733 49.0356L144.606 49.7699C143.681 50.373 143.423 51.6107 143.997 52.5539C150.027 62.4506 153.347 73.7745 153.602 85.3844C153.858 96.9942 151.04 108.453 145.451 118.606C144.918 119.573 145.231 120.798 146.182 121.36L147.34 122.044Z"/>
</mask>
<path d="M147.34 122.044C148.291 122.606 149.52 122.292 150.055 121.325C156.149 110.314 159.223 97.8727 158.946 85.2667C158.668 72.6608 155.05 60.3668 148.477 49.6344C147.9 48.6924 146.658 48.4325 145.733 49.0356L144.606 49.7699C143.681 50.373 143.423 51.6107 143.997 52.5539C150.027 62.4506 153.347 73.7745 153.602 85.3844C153.858 96.9942 151.04 108.453 145.451 118.606C144.918 119.573 145.231 120.798 146.182 121.36L147.34 122.044Z" stroke="#4384F0" stroke-width="10" mask="url(#path-3-inside-3)"/>
</svg>
