<svg width="131" height="90" viewBox="0 0 131 90" fill="none" xmlns="http://www.w3.org/2000/svg">
<rect x="0.5" y="0.5" width="130" height="89" rx="2.5" stroke="#C3DAFA"/>
<rect x="90" y="20.7344" width="38.091" height="2.11494" rx="1.05747" fill="#C3DAFA"/>
<rect x="89.666" y="28.1367" width="35.8056" height="2.11494" rx="1.05747" fill="#C3DAFA"/>
<rect x="89.666" y="24.4375" width="37.3292" height="2.11494" rx="1.05747" fill="#C3DAFA"/>
<rect x="92.7139" y="35.5391" width="22.8546" height="2.11494" rx="1.05747" fill="#C3DAFA"/>
<rect x="89.667" y="35.5391" width="1.52364" height="2.11494" rx="0.76182" fill="#C3DAFA"/>
<rect x="92.7139" y="40.8281" width="19.8073" height="2.11494" rx="1.05747" fill="#C3DAFA"/>
<rect x="89.666" y="40.8281" width="1.52364" height="2.11494" rx="0.76182" fill="#C3DAFA"/>
<rect x="92.7139" y="46.1133" width="25.521" height="2.11494" rx="1.05747" fill="#C3DAFA"/>
<rect x="89.666" y="46.1133" width="1.52364" height="2.11494" rx="0.76182" fill="#C3DAFA"/>
<rect x="92.7139" y="51.4023" width="23.9973" height="2.11494" rx="1.05747" fill="#C3DAFA"/>
<rect x="89.666" y="56.6914" width="1.52364" height="2.11494" rx="0.76182" fill="#C3DAFA"/>
<rect x="92.7139" y="56.6914" width="11.0464" height="2.11494" rx="1.05747" fill="#C3DAFA"/>
<rect x="89.666" y="61.9766" width="1.52364" height="2.11494" rx="0.76182" fill="#C3DAFA"/>
<rect x="92.7139" y="61.9766" width="16.3791" height="2.11494" rx="1.05747" fill="#C3DAFA"/>
<rect x="89.666" y="67.2656" width="1.52364" height="2.11494" rx="0.76182" fill="#C3DAFA"/>
<rect x="92.7139" y="67.2656" width="13.3319" height="2.11494" rx="1.05747" fill="#C3DAFA"/>
<rect x="89.666" y="51.4023" width="1.52364" height="2.11494" rx="0.76182" fill="#C3DAFA"/>
<rect x="94" y="79" width="30" height="7" rx="2" fill="#7AACFF"/>
<rect x="46.666" y="13.332" width="22.8546" height="2.64368" rx="1.32184" fill="#7AACFF"/>
<rect x="46.666" y="20.7344" width="38.091" height="2.11494" rx="1.05747" fill="#C3DAFA"/>
<rect x="46.666" y="28.1367" width="35.8056" height="2.11494" rx="1.05747" fill="#C3DAFA"/>
<rect x="46.666" y="24.4375" width="37.3292" height="2.11494" rx="1.05747" fill="#C3DAFA"/>
<rect x="49.7129" y="35.5391" width="22.8546" height="2.11494" rx="1.05747" fill="#C3DAFA"/>
<rect x="46.667" y="35.5391" width="1.52364" height="2.11494" rx="0.76182" fill="#C3DAFA"/>
<rect x="49.7129" y="40.8281" width="19.8073" height="2.11494" rx="1.05747" fill="#C3DAFA"/>
<rect x="46.666" y="40.8281" width="1.52364" height="2.11494" rx="0.76182" fill="#C3DAFA"/>
<rect x="49.7129" y="46.1133" width="25.521" height="2.11494" rx="1.05747" fill="#C3DAFA"/>
<rect x="46.666" y="46.1133" width="1.52364" height="2.11494" rx="0.76182" fill="#C3DAFA"/>
<rect x="49.7129" y="51.4023" width="23.9973" height="2.11494" rx="1.05747" fill="#C3DAFA"/>
<rect x="46.666" y="56.6914" width="1.52364" height="2.11494" rx="0.76182" fill="#C3DAFA"/>
<rect x="49.7129" y="56.6914" width="11.0464" height="2.11494" rx="1.05747" fill="#C3DAFA"/>
<rect x="46.666" y="51.4023" width="1.52364" height="2.11494" rx="0.76182" fill="#C3DAFA"/>
<rect x="51" y="79" width="30" height="7" rx="2" fill="#7AACFF"/>
<rect width="131" height="8" rx="2" fill="#DAE9FF"/>
<rect x="2.66602" y="13.332" width="22.8546" height="2.64368" rx="1.32184" fill="#7AACFF"/>
<rect x="2" y="3" width="36" height="2" rx="1" fill="#C3DAFA"/>
<rect x="46" y="3" width="36" height="2" rx="1" fill="#C3DAFA"/>
<rect x="90" y="3" width="36" height="2" rx="1" fill="#C3DAFA"/>
<rect x="3" y="20.7344" width="38.091" height="2.11494" rx="1.05747" fill="#C3DAFA"/>
<rect x="2.66602" y="28.1367" width="35.8056" height="2.11494" rx="1.05747" fill="#C3DAFA"/>
<rect x="2.66602" y="24.4375" width="37.3292" height="2.11494" rx="1.05747" fill="#C3DAFA"/>
<rect x="5.71289" y="35.5391" width="22.8546" height="2.11494" rx="1.05747" fill="#C3DAFA"/>
<rect x="2.66699" y="35.5391" width="1.52364" height="2.11494" rx="0.76182" fill="#C3DAFA"/>
<rect x="5.71289" y="40.8281" width="19.8073" height="2.11494" rx="1.05747" fill="#C3DAFA"/>
<rect x="2.66602" y="40.8281" width="1.52364" height="2.11494" rx="0.76182" fill="#C3DAFA"/>
<rect x="5.71289" y="46.1133" width="25.521" height="2.11494" rx="1.05747" fill="#C3DAFA"/>
<rect x="2.66602" y="46.1133" width="1.52364" height="2.11494" rx="0.76182" fill="#C3DAFA"/>
<rect x="7" y="79" width="30" height="7" rx="2" fill="#7AACFF"/>
<line x1="43.5" y1="8" x2="43.5" y2="90" stroke="#C3DAFA"/>
<line x1="87.5" y1="8" x2="87.5" y2="90" stroke="#C3DAFA"/>
<rect x="90" y="14" width="22.8546" height="2.64368" rx="1.32184" fill="#7AACFF"/>
</svg>
