<svg width="186" height="110" viewBox="0 0 186 110" fill="none" xmlns="http://www.w3.org/2000/svg">
<rect x="129.184" y="94.5898" width="56.7848" height="14.9434" rx="3" fill="#7AACFF"/>
<rect x="65.4258" y="95.0898" width="55.7848" height="13.9434" rx="2.5" stroke="#C3DAFA"/>
<rect x="1.16992" y="56.25" width="184.298" height="30.3811" rx="2.5" stroke="#C3DAFA"/>
<rect x="5.15234" y="60.2266" width="173.343" height="2.98867" rx="1.49434" fill="#C3DAFA"/>
<rect x="18.6016" y="4.9375" width="67.2452" height="2.98867" rx="1.49434" fill="#C3DAFA"/>
<rect x="18.6016" y="22.8672" width="40.3471" height="2.98867" rx="1.49434" fill="#C3DAFA"/>
<rect x="18.6016" y="39.3047" width="56.7848" height="2.98867" rx="1.49434" fill="#C3DAFA"/>
<rect x="5.15234" y="66.4805" width="87.5304" height="3.57267" rx="1.78633" fill="#C3DAFA"/>
<line x1="95.3125" y1="64.7109" x2="95.3125" y2="70.6883" stroke="#7AACFF"/>
<circle cx="7.39444" cy="7.18155" r="6.22452" stroke="#C3DAFA"/>
<rect x="6.7832" y="4.11328" width="1.22264" height="6.1132" rx="0.61132" fill="#C3DAFA"/>
<rect x="10.4492" y="6.55078" width="1.22264" height="6.1132" rx="0.61132" transform="rotate(89.5901 10.4492 6.55078)" fill="#C3DAFA"/>
<circle cx="7.39444" cy="23.619" r="6.22452" stroke="#C3DAFA"/>
<rect x="6.78516" y="20.5586" width="1.22264" height="6.1132" rx="0.61132" fill="#C3DAFA"/>
<rect x="10.4492" y="22.9883" width="1.22264" height="6.1132" rx="0.61132" transform="rotate(89.5901 10.4492 22.9883)" fill="#C3DAFA"/>
<circle cx="7.39444" cy="40.0605" r="6.22452" stroke="#C3DAFA"/>
<rect x="6.7832" y="37.0039" width="1.22264" height="6.1132" rx="0.61132" fill="#C3DAFA"/>
<rect x="10.4492" y="39.4297" width="1.22264" height="6.1132" rx="0.61132" transform="rotate(89.5901 10.4492 39.4297)" fill="#C3DAFA"/>
</svg>
