<svg width="162" height="94" viewBox="0 0 162 94" fill="none" xmlns="http://www.w3.org/2000/svg">
<rect x="9.59961" y="30.0234" width="76.2112" height="47.8188" rx="1" fill="#7AACFF"/>
<rect x="9.60156" y="82.3203" width="20.9207" height="10.4604" rx="1" fill="#93B8FA"/>
<rect x="37.9941" y="82.3203" width="20.9207" height="10.4604" rx="1" fill="#93B8FA"/>
<rect x="64.8906" y="82.3203" width="20.9207" height="10.4604" rx="1" fill="#93B8FA"/>
<path d="M90.2943 50.9453L92.656 53.307C93.8276 54.4786 93.8276 56.3781 92.656 57.5496L90.2943 59.9113" stroke="#3C7EEA"/>
<path d="M5.11778 50.9453L2.75609 53.307C1.58451 54.4786 1.58451 56.3781 2.75609 57.5496L5.11778 59.9113" stroke="#3C7EEA"/>
<rect x="103.994" y="12.0938" width="57.3841" height="80.7009" rx="0.75" fill="white" stroke="#C3DAFA" stroke-width="0.5"/>
<rect x="124.129" y="2.13672" width="17.1169" height="7.88203" rx="0.75" fill="white" stroke="#C3DAFA" stroke-width="0.5"/>
<rect x="144.262" y="2.13672" width="17.1169" height="7.88203" rx="0.75" fill="white" stroke="#C3DAFA" stroke-width="0.5"/>
<rect x="103.744" y="1.88672" width="17.6169" height="8.38203" rx="1" fill="#DAE9FF"/>
<rect x="148.039" y="17.0781" width="9.56346" height="2.61938" rx="1.30969" fill="#7AACFF"/>
<rect x="107.268" y="17.0781" width="30.2004" height="2.61938" rx="1.30969" fill="#7AACFF"/>
<rect x="106.764" y="5.03516" width="11.5768" height="2.09551" rx="1.04775" fill="#C3DAFA"/>
<rect x="126.896" y="5.03516" width="11.5768" height="2.09551" rx="1.04775" fill="#C3DAFA"/>
<rect x="147.031" y="5.03516" width="11.5768" height="2.09551" rx="1.04775" fill="#C3DAFA"/>
<rect x="107.268" y="24.4141" width="50.334" height="2.09551" rx="1.04775" fill="#C3DAFA"/>
<rect x="107.268" y="31.7461" width="47.314" height="2.09551" rx="1.04775" fill="#C3DAFA"/>
<rect x="107.268" y="28.0859" width="49.3273" height="2.09551" rx="1.04775" fill="#C3DAFA"/>
<rect x="111.295" y="39.082" width="30.2004" height="2.09551" rx="1.04775" fill="#C3DAFA"/>
<rect x="107.27" y="39.082" width="2.0145" height="2.0967" rx="1.00725" fill="#C3DAFA"/>
<rect x="111.297" y="44.3164" width="26.1737" height="2.09551" rx="1.04775" fill="#C3DAFA"/>
<rect x="107.268" y="44.3164" width="2.0145" height="2.0967" rx="1.00725" fill="#C3DAFA"/>
<rect x="111.297" y="49.5664" width="33.7238" height="2.09551" rx="1.04775" fill="#C3DAFA"/>
<rect x="107.268" y="49.5664" width="2.0145" height="2.0967" rx="1.00725" fill="#C3DAFA"/>
<rect x="111.295" y="54.8008" width="31.7104" height="2.09551" rx="1.04775" fill="#C3DAFA"/>
<g opacity="0.5">
<rect x="107.268" y="60.0352" width="2.0145" height="2.0967" rx="1.00725" fill="#C3DAFA"/>
<rect x="111.295" y="60.0352" width="14.5969" height="2.09551" rx="1.04775" fill="#C3DAFA"/>
<rect x="107.268" y="65.2734" width="2.0145" height="2.0967" rx="1.00725" fill="#C3DAFA"/>
<rect x="111.295" y="65.2734" width="21.6436" height="2.09551" rx="1.04775" fill="#C3DAFA"/>
<rect x="107.268" y="70.5195" width="2.0145" height="2.0967" rx="1.00725" fill="#C3DAFA"/>
<rect x="111.295" y="70.5195" width="17.6169" height="2.09551" rx="1.04775" fill="#C3DAFA"/>
</g>
<rect x="107.268" y="54.8008" width="2.0145" height="2.0967" rx="1.00725" fill="#C3DAFA"/>
<rect x="107.77" y="80.9961" width="48.824" height="7.85815" rx="3" fill="#7AACFF"/>
<circle cx="18.8128" cy="10.1077" r="9.71319" fill="#7AACFF"/>
<rect x="33.5098" y="10.8555" width="52.3018" height="2.98867" rx="1.49434" fill="#C3DAFA"/>
<rect x="33.5098" y="3.38672" width="25.4037" height="2.98867" rx="1.49434" fill="#7AACFF"/>
<rect x="63.3965" y="3.38672" width="14.9434" height="2.98867" rx="1.49434" fill="#7AACFF"/>
<rect x="33.5098" y="16.8398" width="47.8188" height="2.98867" rx="1.49434" fill="#C3DAFA"/>
</svg>
