<svg width="121" height="34" viewBox="0 0 121 34" fill="none" xmlns="http://www.w3.org/2000/svg">
<circle cx="6.54185" cy="7.08482" r="6.54185" fill="#7AACFF"/>
<rect x="17.2471" y="11.2461" width="100.507" height="2.37885" rx="1.18943" fill="#C3DAFA"/>
<rect x="17.2471" y="3.51562" width="14.8678" height="2.97357" rx="1.48678" fill="#7AACFF"/>
<rect x="33.8984" y="3.51562" width="8.32599" height="2.97357" rx="1.48678" fill="#7AACFF"/>
<rect x="50.5498" y="3.51562" width="15.4626" height="2.97357" rx="1.48678" fill="#C3DAFA"/>
<rect x="17.2471" y="19.5742" width="94.5595" height="2.37885" rx="1.18943" fill="#C3DAFA"/>
<rect x="17.2471" y="15.4102" width="103.48" height="2.37885" rx="1.18943" fill="#C3DAFA"/>
<rect x="17.2461" y="28.4961" width="16.652" height="2.97357" rx="1.48678" fill="#C3DAFA"/>
<rect x="43.4131" y="28.4961" width="4.75771" height="2.97357" rx="1.48678" fill="#C3DAFA"/>
<path d="M38.8461 28.2781C39.0671 27.598 40.0294 27.598 40.2504 28.2781V28.2781C40.3492 28.5823 40.6327 28.7883 40.9525 28.7883V28.7883C41.6677 28.7883 41.9651 29.7035 41.3865 30.1238V30.1238C41.1277 30.3118 41.0194 30.6451 41.1183 30.9492V30.9492C41.3393 31.6294 40.5608 32.195 39.9822 31.7746V31.7746C39.7234 31.5867 39.3731 31.5867 39.1143 31.7746V31.7746C38.5357 32.195 37.7572 31.6294 37.9782 30.9492V30.9492C38.0771 30.6451 37.9688 30.3118 37.71 30.1238V30.1238C37.1314 29.7035 37.4288 28.7883 38.144 28.7883V28.7883C38.4638 28.7883 38.7473 28.5823 38.8461 28.2781V28.2781Z" fill="#7AACFF"/>
<rect x="53.5234" y="28.4961" width="16.652" height="2.97357" rx="1.48678" fill="#C3DAFA"/>
<rect x="79.6904" y="28.4961" width="4.75771" height="2.97357" rx="1.48678" fill="#C3DAFA"/>
<path d="M75.1235 28.2781C75.3445 27.598 76.3067 27.598 76.5277 28.2781V28.2781C76.6266 28.5823 76.91 28.7883 77.2299 28.7883V28.7883C77.9451 28.7883 78.2424 29.7035 77.6638 30.1238V30.1238C77.4051 30.3118 77.2968 30.6451 77.3956 30.9492V30.9492C77.6166 31.6294 76.8381 32.195 76.2595 31.7746V31.7746C76.0008 31.5867 75.6504 31.5867 75.3917 31.7746V31.7746C74.8131 32.195 74.0346 31.6294 74.2556 30.9492V30.9492C74.3544 30.6451 74.2461 30.3118 73.9874 30.1238V30.1238C73.4088 29.7035 73.7061 28.7883 74.4213 28.7883V28.7883C74.7412 28.7883 75.0246 28.5823 75.1235 28.2781V28.2781Z" fill="#7AACFF"/>
<rect x="89.8027" y="28.4961" width="16.652" height="2.97357" rx="1.48678" fill="#C3DAFA"/>
<rect x="115.97" y="28.4961" width="4.75771" height="2.97357" rx="1.48678" fill="#C3DAFA"/>
<path d="M111.403 28.2781C111.624 27.598 112.586 27.598 112.807 28.2781V28.2781C112.906 28.5823 113.189 28.7883 113.509 28.7883V28.7883C114.224 28.7883 114.522 29.7035 113.943 30.1238V30.1238C113.684 30.3118 113.576 30.6451 113.675 30.9492V30.9492C113.896 31.6294 113.117 32.195 112.539 31.7746V31.7746C112.28 31.5867 111.93 31.5867 111.671 31.7746V31.7746C111.092 32.195 110.314 31.6294 110.535 30.9492V30.9492C110.634 30.6451 110.525 30.3118 110.267 30.1238V30.1238C109.688 29.7035 109.985 28.7883 110.701 28.7883V28.7883C111.02 28.7883 111.304 28.5823 111.403 28.2781V28.2781Z" fill="#7AACFF"/>
</svg>
