<svg width="180" height="110" viewBox="0 0 180 110" fill="none" xmlns="http://www.w3.org/2000/svg">
<g filter="url(#filter0_d)">
<rect x="12" y="8" width="156" height="86" rx="3" fill="white"/>
</g>
<circle cx="35.6786" cy="41.0848" r="6.54185" fill="#7AACFF"/>
<rect x="46.3838" y="45.2461" width="100.507" height="2.37885" rx="1.18943" fill="#C3DAFA"/>
<rect x="46.3838" y="37.5156" width="14.8678" height="2.97357" rx="1.48678" fill="#7AACFF"/>
<rect x="63.0352" y="37.5156" width="8.32599" height="2.97357" rx="1.48678" fill="#7AACFF"/>
<rect x="79.6865" y="37.5156" width="15.4626" height="2.97357" rx="1.48678" fill="#C3DAFA"/>
<rect x="46.3838" y="53.5742" width="94.5595" height="2.37885" rx="1.18943" fill="#C3DAFA"/>
<rect x="46.3838" y="49.4102" width="103.48" height="2.37885" rx="1.18943" fill="#C3DAFA"/>
<rect x="46.3828" y="62.4961" width="16.652" height="2.97357" rx="1.48678" fill="#C3DAFA"/>
<rect x="72.5498" y="62.4961" width="4.75771" height="2.97357" rx="1.48678" fill="#C3DAFA"/>
<path d="M67.9828 62.2781C68.2038 61.598 69.1661 61.598 69.3871 62.2781V62.2781C69.4859 62.5823 69.7694 62.7883 70.0893 62.7883V62.7883C70.8044 62.7883 71.1018 63.7035 70.5232 64.1238V64.1238C70.2644 64.3118 70.1562 64.6451 70.255 64.9492V64.9492C70.476 65.6294 69.6975 66.195 69.1189 65.7746V65.7746C68.8602 65.5867 68.5098 65.5867 68.251 65.7746V65.7746C67.6724 66.195 66.8939 65.6294 67.1149 64.9492V64.9492C67.2138 64.6451 67.1055 64.3118 66.8468 64.1238V64.1238C66.2682 63.7035 66.5655 62.7883 67.2807 62.7883V62.7883C67.6005 62.7883 67.884 62.5823 67.9828 62.2781V62.2781Z" fill="#7AACFF"/>
<rect x="82.6602" y="62.4961" width="16.652" height="2.97357" rx="1.48678" fill="#C3DAFA"/>
<rect x="108.827" y="62.4961" width="4.75771" height="2.97357" rx="1.48678" fill="#C3DAFA"/>
<path d="M104.26 62.2781C104.481 61.598 105.443 61.598 105.664 62.2781V62.2781C105.763 62.5823 106.047 62.7883 106.367 62.7883V62.7883C107.082 62.7883 107.379 63.7035 106.801 64.1238V64.1238C106.542 64.3118 106.434 64.6451 106.532 64.9492V64.9492C106.753 65.6294 105.975 66.195 105.396 65.7746V65.7746C105.138 65.5867 104.787 65.5867 104.528 65.7746V65.7746C103.95 66.195 103.171 65.6294 103.392 64.9492V64.9492C103.491 64.6451 103.383 64.3118 103.124 64.1238V64.1238C102.546 63.7035 102.843 62.7883 103.558 62.7883V62.7883C103.878 62.7883 104.161 62.5823 104.26 62.2781V62.2781Z" fill="#7AACFF"/>
<rect x="118.939" y="62.4961" width="16.652" height="2.97357" rx="1.48678" fill="#C3DAFA"/>
<rect x="145.106" y="62.4961" width="4.75771" height="2.97357" rx="1.48678" fill="#C3DAFA"/>
<path d="M140.539 62.2781C140.76 61.598 141.723 61.598 141.944 62.2781V62.2781C142.043 62.5823 142.326 62.7883 142.646 62.7883V62.7883C143.361 62.7883 143.658 63.7035 143.08 64.1238V64.1238C142.821 64.3118 142.713 64.6451 142.812 64.9492V64.9492C143.033 65.6294 142.254 66.195 141.676 65.7746V65.7746C141.417 65.5867 141.066 65.5867 140.808 65.7746V65.7746C140.229 66.195 139.451 65.6294 139.672 64.9492V64.9492C139.77 64.6451 139.662 64.3118 139.403 64.1238V64.1238C138.825 63.7035 139.122 62.7883 139.837 62.7883V62.7883C140.157 62.7883 140.441 62.5823 140.539 62.2781V62.2781Z" fill="#7AACFF"/>
<defs>
<filter id="filter0_d" x="0" y="0" width="180" height="110" filterUnits="userSpaceOnUse" color-interpolation-filters="sRGB">
<feFlood flood-opacity="0" result="BackgroundImageFix"/>
<feColorMatrix in="SourceAlpha" type="matrix" values="0 0 0 0 0 0 0 0 0 0 0 0 0 0 0 0 0 0 127 0"/>
<feOffset dy="4"/>
<feGaussianBlur stdDeviation="6"/>
<feColorMatrix type="matrix" values="0 0 0 0 0.898039 0 0 0 0 0.917647 0 0 0 0 0.956863 0 0 0 1 0"/>
<feBlend mode="normal" in2="BackgroundImageFix" result="effect1_dropShadow"/>
<feBlend mode="normal" in="SourceGraphic" in2="effect1_dropShadow" result="shape"/>
</filter>
</defs>
</svg>
