<svg width="197" height="135" viewBox="0 0 197 135" fill="none" xmlns="http://www.w3.org/2000/svg">
<rect x="1.17969" y="0.917969" width="194.758" height="133.49" rx="2.5" fill="white" stroke="#C3DAFA"/>
<rect x="135.17" y="31.3906" width="56.9208" height="3.16044" rx="1.58022" fill="#C3DAFA"/>
<rect x="134.672" y="42.4531" width="53.5056" height="3.16044" rx="1.58022" fill="#C3DAFA"/>
<rect x="134.672" y="36.9297" width="55.7824" height="3.16044" rx="1.58022" fill="#C3DAFA"/>
<rect x="139.227" y="53.5156" width="34.1525" height="3.16044" rx="1.58022" fill="#C3DAFA"/>
<rect x="134.674" y="53.5156" width="2.27658" height="3.16008" rx="1.13829" fill="#C3DAFA"/>
<rect x="139.227" y="61.4258" width="29.5988" height="3.16044" rx="1.58022" fill="#C3DAFA"/>
<rect x="134.672" y="61.4258" width="2.27658" height="3.16008" rx="1.13829" fill="#C3DAFA"/>
<rect x="139.227" y="69.3242" width="38.137" height="3.16044" rx="1.58022" fill="#C3DAFA"/>
<rect x="134.672" y="69.3242" width="2.27658" height="3.16008" rx="1.13829" fill="#C3DAFA"/>
<rect x="139.227" y="77.2266" width="35.8601" height="3.16044" rx="1.58022" fill="#C3DAFA"/>
<rect x="134.672" y="85.1328" width="2.27658" height="3.16008" rx="1.13829" fill="#C3DAFA"/>
<rect x="139.227" y="85.1328" width="16.507" height="3.16044" rx="1.58022" fill="#C3DAFA"/>
<rect x="134.672" y="93.0273" width="2.27658" height="3.16008" rx="1.13829" fill="#C3DAFA"/>
<rect x="139.227" y="93.0273" width="24.476" height="3.16044" rx="1.58022" fill="#C3DAFA"/>
<rect x="134.672" y="100.93" width="2.27658" height="3.16008" rx="1.13829" fill="#C3DAFA"/>
<rect x="139.227" y="100.93" width="19.9223" height="3.16044" rx="1.58022" fill="#C3DAFA"/>
<rect x="134.672" y="77.2266" width="2.27658" height="3.16008" rx="1.13829" fill="#C3DAFA"/>
<rect x="141.148" y="118.465" width="44.8301" height="10.4604" rx="2" fill="#7AACFF"/>
<rect x="70.416" y="20.332" width="34.1525" height="3.95055" rx="1.97527" fill="#7AACFF"/>
<rect x="70.416" y="31.3906" width="56.9208" height="3.16044" rx="1.58022" fill="#C3DAFA"/>
<rect x="70.416" y="42.4531" width="53.5056" height="3.16044" rx="1.58022" fill="#C3DAFA"/>
<rect x="70.416" y="36.9297" width="55.7824" height="3.16044" rx="1.58022" fill="#C3DAFA"/>
<rect x="74.9688" y="53.5156" width="34.1525" height="3.16044" rx="1.58022" fill="#C3DAFA"/>
<rect x="70.416" y="53.5156" width="2.27658" height="3.16008" rx="1.13829" fill="#C3DAFA"/>
<rect x="74.9688" y="61.4258" width="29.5988" height="3.16044" rx="1.58022" fill="#C3DAFA"/>
<rect x="70.416" y="61.4258" width="2.27658" height="3.16008" rx="1.13829" fill="#C3DAFA"/>
<rect x="74.9688" y="69.3242" width="38.137" height="3.16044" rx="1.58022" fill="#C3DAFA"/>
<rect x="70.416" y="69.3242" width="2.27658" height="3.16008" rx="1.13829" fill="#C3DAFA"/>
<rect x="74.9688" y="77.2266" width="35.8601" height="3.16044" rx="1.58022" fill="#C3DAFA"/>
<rect x="70.416" y="85.1328" width="2.27658" height="3.16008" rx="1.13829" fill="#C3DAFA"/>
<rect x="74.9688" y="85.1328" width="16.507" height="3.16044" rx="1.58022" fill="#C3DAFA"/>
<rect x="70.416" y="77.2266" width="2.27658" height="3.16008" rx="1.13829" fill="#C3DAFA"/>
<rect x="76.8926" y="118.465" width="44.8301" height="10.4604" rx="2" fill="#7AACFF"/>
<rect x="0.679688" y="0.417969" width="195.758" height="11.9547" rx="2" fill="#DAE9FF"/>
<rect x="4.66406" y="20.332" width="34.1525" height="3.95055" rx="1.97527" fill="#7AACFF"/>
<rect x="3.66992" y="4.90234" width="53.7961" height="2.98867" rx="1.49434" fill="#C3DAFA"/>
<rect x="69.4199" y="4.90234" width="53.7961" height="2.98867" rx="1.49434" fill="#C3DAFA"/>
<rect x="135.17" y="4.90234" width="53.7961" height="2.98867" rx="1.49434" fill="#C3DAFA"/>
<rect x="5.16406" y="31.3906" width="56.9208" height="3.16044" rx="1.58022" fill="#C3DAFA"/>
<rect x="4.66406" y="42.4531" width="53.5056" height="3.16044" rx="1.58022" fill="#C3DAFA"/>
<rect x="4.66406" y="36.9297" width="55.7824" height="3.16044" rx="1.58022" fill="#C3DAFA"/>
<rect x="9.2168" y="53.5156" width="34.1525" height="3.16044" rx="1.58022" fill="#C3DAFA"/>
<rect x="4.66602" y="53.5156" width="2.27658" height="3.16008" rx="1.13829" fill="#C3DAFA"/>
<rect x="9.2168" y="61.4258" width="29.5988" height="3.16044" rx="1.58022" fill="#C3DAFA"/>
<rect x="4.66406" y="61.4258" width="2.27658" height="3.16008" rx="1.13829" fill="#C3DAFA"/>
<rect x="9.2168" y="69.3242" width="38.137" height="3.16044" rx="1.58022" fill="#C3DAFA"/>
<rect x="4.66406" y="69.3242" width="2.27658" height="3.16008" rx="1.13829" fill="#C3DAFA"/>
<rect x="11.1406" y="118.465" width="44.8301" height="10.4604" rx="2" fill="#7AACFF"/>
<line x1="65.4375" y1="12.3711" x2="65.4375" y2="134.907" stroke="#C3DAFA"/>
<line x1="131.188" y1="12.3711" x2="131.188" y2="134.907" stroke="#C3DAFA"/>
</svg>
