<svg width="180" height="143" viewBox="0 0 180 143" fill="none" xmlns="http://www.w3.org/2000/svg">
<g filter="url(#filter0_d)">
<rect x="12" y="8" width="156" height="119" rx="3" fill="white"/>
</g>
<rect x="26.5" y="23.5" width="130" height="89" rx="2.5" fill="white" stroke="#C3DAFA"/>
<rect x="116" y="43.7344" width="38.091" height="2.11494" rx="1.05747" fill="#C3DAFA"/>
<rect x="115.666" y="51.1367" width="35.8056" height="2.11494" rx="1.05747" fill="#C3DAFA"/>
<rect x="115.666" y="47.4375" width="37.3292" height="2.11494" rx="1.05747" fill="#C3DAFA"/>
<rect x="118.714" y="58.5391" width="22.8546" height="2.11494" rx="1.05747" fill="#C3DAFA"/>
<rect x="115.667" y="58.5391" width="1.52364" height="2.11494" rx="0.76182" fill="#C3DAFA"/>
<rect x="118.714" y="63.8281" width="19.8073" height="2.11494" rx="1.05747" fill="#C3DAFA"/>
<rect x="115.666" y="63.8281" width="1.52364" height="2.11494" rx="0.76182" fill="#C3DAFA"/>
<rect x="118.714" y="69.1133" width="25.521" height="2.11494" rx="1.05747" fill="#C3DAFA"/>
<rect x="115.666" y="69.1133" width="1.52364" height="2.11494" rx="0.76182" fill="#C3DAFA"/>
<rect x="118.714" y="74.4023" width="23.9973" height="2.11494" rx="1.05747" fill="#C3DAFA"/>
<rect x="115.666" y="79.6914" width="1.52364" height="2.11494" rx="0.76182" fill="#C3DAFA"/>
<rect x="118.714" y="79.6914" width="11.0464" height="2.11494" rx="1.05747" fill="#C3DAFA"/>
<rect x="115.666" y="84.9766" width="1.52364" height="2.11494" rx="0.76182" fill="#C3DAFA"/>
<rect x="118.714" y="84.9766" width="16.3791" height="2.11494" rx="1.05747" fill="#C3DAFA"/>
<rect x="115.666" y="90.2656" width="1.52364" height="2.11494" rx="0.76182" fill="#C3DAFA"/>
<rect x="118.714" y="90.2656" width="13.3319" height="2.11494" rx="1.05747" fill="#C3DAFA"/>
<rect x="115.666" y="74.4023" width="1.52364" height="2.11494" rx="0.76182" fill="#C3DAFA"/>
<rect x="120" y="102" width="30" height="7" rx="2" fill="#7AACFF"/>
<rect x="72.666" y="36.332" width="22.8546" height="2.64368" rx="1.32184" fill="#7AACFF"/>
<rect x="72.666" y="43.7344" width="38.091" height="2.11494" rx="1.05747" fill="#C3DAFA"/>
<rect x="72.666" y="51.1367" width="35.8056" height="2.11494" rx="1.05747" fill="#C3DAFA"/>
<rect x="72.666" y="47.4375" width="37.3292" height="2.11494" rx="1.05747" fill="#C3DAFA"/>
<rect x="75.7129" y="58.5391" width="22.8546" height="2.11494" rx="1.05747" fill="#C3DAFA"/>
<rect x="72.667" y="58.5391" width="1.52364" height="2.11494" rx="0.76182" fill="#C3DAFA"/>
<rect x="75.7129" y="63.8281" width="19.8073" height="2.11494" rx="1.05747" fill="#C3DAFA"/>
<rect x="72.666" y="63.8281" width="1.52364" height="2.11494" rx="0.76182" fill="#C3DAFA"/>
<rect x="75.7129" y="69.1133" width="25.521" height="2.11494" rx="1.05747" fill="#C3DAFA"/>
<rect x="72.666" y="69.1133" width="1.52364" height="2.11494" rx="0.76182" fill="#C3DAFA"/>
<rect x="75.7129" y="74.4023" width="23.9973" height="2.11494" rx="1.05747" fill="#C3DAFA"/>
<rect x="72.666" y="79.6914" width="1.52364" height="2.11494" rx="0.76182" fill="#C3DAFA"/>
<rect x="75.7129" y="79.6914" width="11.0464" height="2.11494" rx="1.05747" fill="#C3DAFA"/>
<rect x="72.666" y="74.4023" width="1.52364" height="2.11494" rx="0.76182" fill="#C3DAFA"/>
<rect x="77" y="102" width="30" height="7" rx="2" fill="#7AACFF"/>
<rect x="26" y="23" width="131" height="8" rx="2" fill="#DAE9FF"/>
<rect x="28.666" y="36.332" width="22.8546" height="2.64368" rx="1.32184" fill="#7AACFF"/>
<rect x="28" y="26" width="36" height="2" rx="1" fill="#C3DAFA"/>
<rect x="72" y="26" width="36" height="2" rx="1" fill="#C3DAFA"/>
<rect x="116" y="26" width="36" height="2" rx="1" fill="#C3DAFA"/>
<rect x="29" y="43.7344" width="38.091" height="2.11494" rx="1.05747" fill="#C3DAFA"/>
<rect x="28.666" y="51.1367" width="35.8056" height="2.11494" rx="1.05747" fill="#C3DAFA"/>
<rect x="28.666" y="47.4375" width="37.3292" height="2.11494" rx="1.05747" fill="#C3DAFA"/>
<rect x="31.7129" y="58.5391" width="22.8546" height="2.11494" rx="1.05747" fill="#C3DAFA"/>
<rect x="28.667" y="58.5391" width="1.52364" height="2.11494" rx="0.76182" fill="#C3DAFA"/>
<rect x="31.7129" y="63.8281" width="19.8073" height="2.11494" rx="1.05747" fill="#C3DAFA"/>
<rect x="28.666" y="63.8281" width="1.52364" height="2.11494" rx="0.76182" fill="#C3DAFA"/>
<rect x="31.7129" y="69.1133" width="25.521" height="2.11494" rx="1.05747" fill="#C3DAFA"/>
<rect x="28.666" y="69.1133" width="1.52364" height="2.11494" rx="0.76182" fill="#C3DAFA"/>
<rect x="33" y="102" width="30" height="7" rx="2" fill="#7AACFF"/>
<line x1="69.5" y1="31" x2="69.5" y2="113" stroke="#C3DAFA"/>
<line x1="113.5" y1="31" x2="113.5" y2="113" stroke="#C3DAFA"/>
<rect x="116" y="37" width="22.8546" height="2.64368" rx="1.32184" fill="#7AACFF"/>
<defs>
<filter id="filter0_d" x="0" y="0" width="180" height="143" filterUnits="userSpaceOnUse" color-interpolation-filters="sRGB">
<feFlood flood-opacity="0" result="BackgroundImageFix"/>
<feColorMatrix in="SourceAlpha" type="matrix" values="0 0 0 0 0 0 0 0 0 0 0 0 0 0 0 0 0 0 127 0"/>
<feOffset dy="4"/>
<feGaussianBlur stdDeviation="6"/>
<feColorMatrix type="matrix" values="0 0 0 0 0.898039 0 0 0 0 0.917647 0 0 0 0 0.956863 0 0 0 1 0"/>
<feBlend mode="normal" in2="BackgroundImageFix" result="effect1_dropShadow"/>
<feBlend mode="normal" in="SourceGraphic" in2="effect1_dropShadow" result="shape"/>
</filter>
</defs>
</svg>
