<svg width="115" height="71" viewBox="0 0 115 71" fill="none" xmlns="http://www.w3.org/2000/svg">
<circle cx="108.52" cy="5.57597" r="5.57597" fill="#7AACFF"/>
<path fill-rule="evenodd" clip-rule="evenodd" d="M99.8564 2.24609H64.2181C63.4308 2.24609 62.7926 2.88433 62.7926 3.67163V3.67163C62.7926 4.45893 63.4308 5.09716 64.2181 5.09716H97.0054C98.58 5.09716 99.8564 3.82069 99.8564 2.24609V2.24609Z" fill="#C3DAFA"/>
<path fill-rule="evenodd" clip-rule="evenodd" d="M99.8564 7.94922H25.7288C24.9415 7.94922 24.3033 8.58745 24.3033 9.37475V9.37475C24.3033 10.1621 24.9415 10.8003 25.7288 10.8003H97.0054C98.58 10.8003 99.8564 9.52382 99.8564 7.94922V7.94922Z" fill="#C3DAFA"/>
<path fill-rule="evenodd" clip-rule="evenodd" d="M34.2822 15.0745C34.2822 15.8618 34.9205 16.5 35.7078 16.5H97.7294C98.9043 16.5 99.8567 15.5476 99.8567 14.3727V14.3727V13.6489H35.7078C34.9205 13.6489 34.2822 14.2872 34.2822 15.0745V15.0745Z" fill="#C3DAFA"/>
<circle r="5.57597" transform="matrix(-1 0 0 1 5.57637 27.576)" fill="#7AACFF"/>
<path fill-rule="evenodd" clip-rule="evenodd" d="M14.3252 23.8164H48.538C49.3253 23.8164 49.9635 24.4546 49.9635 25.2419V25.2419C49.9635 26.0292 49.3253 26.6675 48.538 26.6675H17.1763C15.6017 26.6675 14.3252 25.391 14.3252 23.8164V23.8164Z" fill="#C3DAFA"/>
<path fill-rule="evenodd" clip-rule="evenodd" d="M99.8564 30.9456C99.8564 31.7329 99.2182 32.3711 98.4309 32.3711H16.4518C15.2769 32.3711 14.3245 31.4187 14.3245 30.2438V30.2438V29.52H98.4309C99.2182 29.52 99.8564 30.1583 99.8564 30.9456V30.9456Z" fill="#C3DAFA"/>
<rect x="84" y="64" width="30" height="7" rx="3" fill="#7AACFF"/>
<rect x="0.5" y="46.5" width="113" height="14" rx="2.5" stroke="#C3DAFA"/>
<rect x="3" y="49" width="107" height="2" rx="1" fill="#C3DAFA"/>
<rect x="3" y="53.1836" width="58.5747" height="2.3908" rx="1.1954" fill="#C3DAFA"/>
<line x1="63.5" y1="52" x2="63.5" y2="56" stroke="#7AACFF"/>
</svg>
