<svg width="186" height="107" viewBox="0 0 186 107" fill="none" xmlns="http://www.w3.org/2000/svg">
<rect x="0.671875" y="0.449219" width="56.7848" height="44.8301" rx="3" fill="#7AACFF"/>
<rect x="129.186" y="91.6055" width="56.7848" height="14.9434" rx="3" fill="#7AACFF"/>
<rect x="65.4277" y="0.949219" width="55.7848" height="43.8301" rx="2.5" stroke="#C3DAFA"/>
<rect x="65.4277" y="92.1055" width="55.7848" height="13.9434" rx="2.5" stroke="#C3DAFA"/>
<rect x="1.17188" y="53.2539" width="184.298" height="30.3811" rx="2.5" stroke="#C3DAFA"/>
<rect x="129.686" y="0.949219" width="55.7848" height="43.8301" rx="2.5" stroke="#C3DAFA"/>
<rect x="5.1543" y="57.2344" width="173.343" height="2.98867" rx="1.49434" fill="#C3DAFA"/>
<rect x="5.1543" y="63.4883" width="87.5304" height="3.57267" rx="1.78633" fill="#C3DAFA"/>
<line x1="95.3145" y1="61.7227" x2="95.3145" y2="67.7" stroke="#7AACFF"/>
<circle cx="92.5743" cy="22.1134" r="7.71886" stroke="#C3DAFA"/>
<rect x="91.8262" y="18.3828" width="1.49434" height="7.47169" rx="0.747169" fill="#C3DAFA"/>
<rect x="96.3105" y="21.3359" width="1.49434" height="7.47169" rx="0.747169" transform="rotate(89.5901 96.3105 21.3359)" fill="#C3DAFA"/>
<circle cx="158.324" cy="22.1134" r="7.71886" stroke="#C3DAFA"/>
<rect x="157.576" y="18.3828" width="1.49434" height="7.47169" rx="0.747169" fill="#C3DAFA"/>
<rect x="162.061" y="21.3359" width="1.49434" height="7.47169" rx="0.747169" transform="rotate(89.5901 162.061 21.3359)" fill="#C3DAFA"/>
<path d="M40.7107 12.4102H15.9238C14.9283 12.4102 14.1211 13.2294 14.1211 14.2399V32.9955C14.1211 34.0059 14.9283 34.8252 15.9238 34.8252H40.7107C41.7063 34.8252 42.5135 34.0059 42.5135 32.9954V14.2399C42.5135 13.2294 41.7064 12.4102 40.7107 12.4102ZM40.7107 14.2399V27.5476L37.1581 24.2691C36.6241 23.7764 35.8029 23.7961 35.2928 24.3144L31.6972 27.9634L24.6078 19.3679C24.0719 18.7184 23.0904 18.712 22.5464 19.3538L15.9238 27.1661V14.2399H40.7107ZM33.0494 19.0432C33.0494 17.6534 34.1588 16.5272 35.528 16.5272C36.8972 16.5272 38.0067 17.6534 38.0067 19.0432C38.0067 20.4329 36.8973 21.5591 35.528 21.5591C34.1589 21.5592 33.0494 20.4329 33.0494 19.0432Z" fill="#C3DAFA"/>
</svg>
